<svg width="82" height="82" viewBox="0 0 82 82" fill="none" xmlns="http://www.w3.org/2000/svg">
<circle cx="41" cy="41" r="41" fill="#01257F" fill-opacity="0.1"/>
<g clip-path="url(#clip0_44_1842)">
<path d="M54.2708 29.2724C53.8198 29.2724 53.4542 29.6381 53.4542 30.0891C53.4542 30.5401 53.8198 30.9057 54.2708 30.9057C59.562 30.9057 63.8667 35.2104 63.8667 40.5016C63.8667 45.7928 59.562 50.0974 54.2708 50.0974H27.7292C22.438 50.0974 18.1333 45.7928 18.1333 40.5016C18.1333 35.2104 22.438 30.9057 27.7292 30.9057H49.0153C49.4663 30.9057 49.8319 30.5401 49.8319 30.0891C49.8319 29.6381 49.4663 29.2724 49.0153 29.2724H27.7292C21.5374 29.2724 16.5 34.3098 16.5 40.5016C16.5 46.6933 21.5374 51.7307 27.7292 51.7307H54.2708C60.4626 51.7307 65.5 46.6933 65.5 40.5016C65.5 34.3098 60.4626 29.2724 54.2708 29.2724Z" fill="#325CC8"/>
<path d="M23.3793 43.164C23.1787 42.6812 22.5903 42.5159 22.1717 42.7974C21.8042 43.0395 21.6914 43.5508 21.9461 43.9296C22.1934 44.3044 22.7075 44.4051 23.0782 44.1552C23.3989 43.9437 23.5297 43.5243 23.3793 43.164Z" fill="#325CC8"/>
<path d="M22.3125 36.7724C21.8901 36.9486 21.7009 37.424 21.8705 37.8392C22.1216 38.4408 22.9465 38.5213 23.3037 37.9801C23.7451 37.3098 23.0562 36.4623 22.3125 36.7724Z" fill="#325CC8"/>
<path d="M31.5473 43.1641C31.3466 42.6812 30.7583 42.5159 30.3397 42.7975C29.9722 43.0395 29.8594 43.5509 30.1141 43.9297C30.3614 44.3044 30.8755 44.4052 31.2462 44.1553C31.5669 43.9438 31.6977 43.5243 31.5473 43.1641Z" fill="#325CC8"/>
<path d="M30.4805 36.7724C30.058 36.9486 29.8689 37.424 30.0384 37.8392C30.2946 38.4525 31.1211 38.5112 31.4717 37.98C31.9146 37.3075 31.2209 36.4636 30.4805 36.7724Z" fill="#325CC8"/>
<path d="M40.7856 46.7148L44.9506 43.6779C45.4213 43.3347 45.392 42.6194 44.8896 42.3177L41.904 40.5263L44.8831 38.7761C45.3847 38.4815 45.4263 37.7689 44.9594 37.4186L40.7944 34.2949C40.2569 33.8919 39.4877 34.276 39.4877 34.9482V39.0765L37.9479 38.1525C37.561 37.9206 37.0594 38.0458 36.8274 38.4326C36.5954 38.8194 36.7208 39.321 37.1076 39.5532L38.7049 40.5115L37.1141 41.4461C36.7252 41.6746 36.5952 42.1751 36.8237 42.5639C37.0522 42.9529 37.5527 43.083 37.9415 42.8544L39.4878 41.9459V46.055C39.4877 46.722 40.247 47.1077 40.7856 46.7148ZM41.1211 36.5815L42.998 37.9893L41.1211 39.092V36.5815ZM41.1211 41.9613L42.9925 43.0841L41.1211 44.4487V41.9613Z" fill="#325CC8"/>
<path d="M58.5754 43.6365C58.664 44.0903 59.1151 44.3674 59.5349 44.2766C59.9924 44.1872 60.2663 43.7343 60.176 43.3171C60.0766 42.808 59.5318 42.5267 59.0633 42.7219C58.6893 42.878 58.4985 43.2738 58.5754 43.6365Z" fill="#325CC8"/>
<path d="M58.6966 37.9802C58.9462 38.3583 59.4624 38.453 59.8287 38.2058C60.196 37.9638 60.3094 37.4516 60.0543 37.0737C59.7792 36.6559 59.1692 36.5778 58.7977 36.9491C58.5149 37.2388 58.4852 37.6592 58.6966 37.9802Z" fill="#325CC8"/>
<path d="M50.4528 43.7887C50.6239 44.2069 51.1079 44.4026 51.5196 44.2307C51.9434 44.055 52.1319 43.5719 51.9616 43.164C51.7613 42.6833 51.1755 42.5144 50.7539 42.7974C50.441 43.004 50.2995 43.4189 50.4528 43.7887Z" fill="#325CC8"/>
<path d="M50.4529 37.8393C50.7039 38.4403 51.5286 38.5219 51.8862 37.9801C52.2866 37.3721 51.7588 36.5832 51.0481 36.7255C50.537 36.8362 50.2583 37.3603 50.4529 37.8393Z" fill="#325CC8"/>
<path d="M27.5071 40.3422C27.3677 39.6325 26.4264 39.4443 26.0279 40.0482C25.8162 40.3625 25.849 40.7994 26.1289 41.0794C26.4079 41.3583 26.8446 41.393 27.16 41.1803C27.4473 40.9909 27.5717 40.6429 27.5071 40.3422Z" fill="#325CC8"/>
<path d="M27.5076 34.541C27.4081 34.0339 26.8666 33.75 26.3949 33.9458C25.9678 34.1239 25.784 34.6083 25.9529 35.0126C26.1196 35.4208 26.5974 35.6305 27.0196 35.4546C27.4034 35.2945 27.5819 34.8929 27.5076 34.541Z" fill="#325CC8"/>
<path d="M27.3862 45.8497C26.9883 45.2468 26.0465 45.4321 25.9071 46.1426C25.8535 46.3959 25.9319 46.6833 26.1296 46.8797C26.4489 47.1991 26.9658 47.1992 27.2852 46.8797C27.557 46.6086 27.605 46.1739 27.3862 45.8497Z" fill="#325CC8"/>
<path d="M54.7157 41.0795C55.1806 41.5441 55.9731 41.2912 56.0938 40.6609C56.1839 40.2444 55.9111 39.7909 55.4527 39.7014C55.025 39.6138 54.5815 39.8902 54.4932 40.3424C54.4399 40.589 54.5148 40.8785 54.7157 41.0795Z" fill="#325CC8"/>
<path d="M55.6024 35.4544C56.0185 35.2811 56.2165 34.8091 56.0444 34.3877C55.7652 33.719 54.8158 33.7164 54.5356 34.3877C54.2608 35.0637 54.9349 35.7331 55.6024 35.4544Z" fill="#325CC8"/>
<path d="M54.715 46.8797C55.0339 47.1986 55.5515 47.1988 55.8706 46.8797C56.1451 46.607 56.188 46.1703 55.9716 45.8497C55.7295 45.483 55.2193 45.3682 54.8395 45.6241C54.4135 45.9053 54.3503 46.5176 54.715 46.8797Z" fill="#325CC8"/>
<path d="M45.6068 23.7879C45.2023 23.5892 44.7126 23.7556 44.5136 24.1605C44.3147 24.5652 44.4815 25.0546 44.8862 25.2537C45.0277 25.323 45.1514 25.4001 45.3709 25.4001C45.6686 25.4001 45.9556 25.2367 46.0996 24.9534C46.3041 24.5512 46.1439 24.0596 45.7418 23.8552C45.6969 23.8324 45.6519 23.8101 45.6068 23.7879Z" fill="#325CC8"/>
<path d="M36.2717 23.8549C35.8694 24.0588 35.7087 24.5504 35.9127 24.9526C36.1172 25.3559 36.609 25.5151 37.0104 25.3116C38.3997 24.6071 39.8581 24.281 41.3419 24.3396C41.7929 24.3593 42.1725 24.007 42.1905 23.5563C42.2087 23.1056 41.8579 22.7256 41.4072 22.7077C39.64 22.6356 37.9126 23.0226 36.2717 23.8549Z" fill="#325CC8"/>
<path d="M33.6394 19.4747C38.386 17.0676 43.6141 17.0676 48.3605 19.4747C48.7619 19.6783 49.2538 19.519 49.4582 19.1157C49.6623 18.7135 49.5015 18.222 49.0992 18.018C43.8763 15.3692 38.1235 15.3692 32.9006 18.018C32.4983 18.222 32.3376 18.7135 32.5416 19.1157C32.7457 19.518 33.2372 19.6786 33.6394 19.4747Z" fill="#325CC8"/>
<path d="M36.2718 57.1484C39.3256 58.6971 42.6901 58.6975 45.7445 57.1484C46.1467 56.9444 46.3076 56.4529 46.1035 56.0507C45.8996 55.6486 45.4081 55.4877 45.0058 55.6916C42.4277 56.999 39.5884 56.999 37.0104 55.6916C36.6083 55.4879 36.1167 55.6483 35.9127 56.0507C35.7087 56.4529 35.8694 56.9444 36.2718 57.1484Z" fill="#325CC8"/>
<path d="M33.7497 61.5839L33.6386 61.5281C33.2361 61.3244 32.7449 61.4857 32.5412 61.8881C32.3377 62.2905 32.4989 62.782 32.9013 62.9855L33.0199 63.0451C33.4235 63.2467 33.9139 63.0828 34.1153 62.6794C34.317 62.2758 34.1531 61.7854 33.7497 61.5839Z" fill="#325CC8"/>
<path d="M48.3602 61.5285C44.6172 63.4265 40.5683 63.8371 36.651 62.7157C36.2173 62.5919 35.7653 62.8424 35.6411 63.276C35.517 63.7097 35.7679 64.1619 36.2015 64.2861C40.5183 65.5217 44.9781 65.0749 49.0988 62.9852C49.501 62.7812 49.6618 62.2897 49.4578 61.8875C49.2538 61.4853 48.7625 61.3247 48.3602 61.5285Z" fill="#325CC8"/>
</g>
<defs>
<clipPath id="clip0_44_1842">
<rect width="49" height="49" fill="white" transform="translate(16.5 16)"/>
</clipPath>
</defs>
</svg>
