<svg width="83" height="82" viewBox="0 0 83 82" fill="none" xmlns="http://www.w3.org/2000/svg">
<g id="Group 1360">
<ellipse id="Ellipse 309" cx="41.251" cy="41" rx="41.251" ry="41" fill="#01257F" fill-opacity="0.1"/>
<g id="Group 39527">
<rect id="Rectangle 748" x="45.3594" y="13" width="46" height="22" rx="2" transform="rotate(60 45.3594 13)" stroke="#325CC8"/>
<rect id="Rectangle 750" x="47.2578" y="22.293" width="4" height="4" rx="1" transform="rotate(60 47.2578 22.293)" stroke="#325CC8"/>
<rect id="Rectangle 755" x="53.2578" y="32.6855" width="4" height="4" rx="1" transform="rotate(60 53.2578 32.6855)" stroke="#325CC8"/>
<rect id="Rectangle 759" x="59.2578" y="43.0781" width="10" height="4" rx="1" transform="rotate(60 59.2578 43.0781)" stroke="#325CC8"/>
<rect id="Rectangle 752" x="42.0625" y="25.293" width="4" height="4" rx="1" transform="rotate(60 42.0625 25.293)" stroke="#325CC8"/>
<rect id="Rectangle 756" x="48.0625" y="35.6855" width="4" height="4" rx="1" transform="rotate(60 48.0625 35.6855)" stroke="#325CC8"/>
<rect id="Rectangle 765" x="36.8672" y="28.293" width="16" height="4" rx="1" transform="rotate(60 36.8672 28.293)" stroke="#325CC8"/>
<rect id="Rectangle 760" x="54.0625" y="46.0781" width="4" height="4" rx="1" transform="rotate(60 54.0625 46.0781)" stroke="#325CC8"/>
<rect id="Rectangle 766" x="57.0625" y="51.2734" width="4" height="10" rx="1" transform="rotate(60 57.0625 51.2734)" stroke="#325CC8"/>
<rect id="Rectangle 763" x="48.8672" y="49.0781" width="4" height="4" rx="1" transform="rotate(60 48.8672 49.0781)" stroke="#325CC8"/>
<rect id="Rectangle 751" x="44.2578" y="17.0977" width="4" height="4" rx="1" transform="rotate(60 44.2578 17.0977)" stroke="#325CC8"/>
<rect id="Rectangle 757" x="50.2578" y="27.4902" width="4" height="4" rx="1" transform="rotate(60 50.2578 27.4902)" stroke="#325CC8"/>
<rect id="Rectangle 761" x="56.2578" y="37.8828" width="4" height="4" rx="1" transform="rotate(60 56.2578 37.8828)" stroke="#325CC8"/>
<rect id="Rectangle 753" x="39.0625" y="20.0977" width="4" height="4" rx="1" transform="rotate(60 39.0625 20.0977)" stroke="#325CC8"/>
<rect id="Rectangle 758" x="45.0625" y="30.4902" width="4" height="4" rx="1" transform="rotate(60 45.0625 30.4902)" stroke="#325CC8"/>
<rect id="Rectangle 762" x="51.0625" y="40.8828" width="4" height="4" rx="1" transform="rotate(60 51.0625 40.8828)" stroke="#325CC8"/>
<rect id="Rectangle 764" x="45.8672" y="43.8828" width="4" height="4" rx="1" transform="rotate(60 45.8672 43.8828)" stroke="#325CC8"/>
<rect id="Rectangle 754" x="33.8672" y="23.0977" width="4" height="4" rx="1" transform="rotate(60 33.8672 23.0977)" stroke="#325CC8"/>
<path id="Rectangle 749" d="M58.355 35.5157L60.0871 34.5157C60.5654 34.2395 60.7293 33.6279 60.4531 33.1496L58.9531 30.5516C58.677 30.0733 58.0654 29.9094 57.5871 30.1855L55.855 31.1855" stroke="#325CC8"/>
<path id="Vector 164" d="M72.2272 31.5472C71.6945 32.6246 70.0425 33.9632 67.6961 30.6991C64.7631 26.619 64.5131 26.186 62.415 28.552C60.7366 30.4448 59.9065 31.5404 59.7013 31.8516" stroke="#325CC8" stroke-linecap="round"/>
<rect id="Rectangle 746" x="20.9062" y="44.3691" width="2.1019" height="3.78343" rx="1.05095" transform="rotate(0.552744 20.9062 44.3691)" stroke="#325CC8"/>
<path id="Vector 155" d="M25.838 34.46L25.8249 35.8251C25.8148 36.8685 24.9608 37.7062 23.9174 37.6961V37.6961C22.8669 37.686 22.0099 38.5348 22.0099 39.5854L22.0099 43.918M21.9788 48.7484L21.9579 50.918M21.9579 50.918C19.1374 50.8908 16.9947 49.966 16.2758 49.507M21.9579 50.918C24.7783 50.9452 26.8499 49.8803 27.6687 49.3457" stroke="#325CC8" stroke-linecap="round"/>
<path id="Ellipse 351" d="M19 57.918C20 54.918 18.881 53.5274 18 52.4589M25 57.918C24 54.418 25.3564 53.3269 26.179 52.2699M18 52.4589C17.8257 52.2475 17.6542 52.0614 17.5 51.8867C16.5665 50.829 16 49.4396 16 47.918C16 44.6043 18.6863 41.918 22 41.918C25.3137 41.918 28 44.6043 28 47.918C28 49.4396 27.4335 50.829 26.5 51.8867C26.3934 52.0075 26.2851 52.1337 26.179 52.2699M18 52.4589C17.1667 53.6119 16 55.3881 16 57.918C16 60.918 18.5 63.418 22 63.418C25.5 63.418 28 61.418 28 57.918C28 55.118 26.9527 52.9859 26.179 52.2699" stroke="#325CC8" stroke-linecap="round"/>
</g>
</g>
</svg>
