<svg width="82" height="82" viewBox="0 0 82 82" fill="none" xmlns="http://www.w3.org/2000/svg">
<g id="Group 1380">
<circle id="Ellipse 307" cx="41" cy="41" r="41" fill="#01257F" fill-opacity="0.1"/>
<g id="Group">
<path id="Vector" d="M36.4466 41.7482C38.7224 41.7482 40.5739 40.3597 40.5739 38.653C40.5739 36.9463 38.7224 35.5576 36.4466 35.5576C34.1707 35.5576 32.3193 36.9463 32.3193 38.653C32.3193 40.3597 34.1707 41.7482 36.4466 41.7482ZM36.4466 36.4863C38.2102 36.4863 39.6452 37.4582 39.6452 38.6529C39.6452 39.8475 38.2103 40.8194 36.4466 40.8194C34.6828 40.8194 33.2481 39.8475 33.2481 38.6529C33.2481 37.4582 34.6828 36.4863 36.4466 36.4863Z" fill="#325CC8"/>
<path id="Vector_2" d="M59.4707 25.5432C49.2631 20.8194 32.7971 20.8185 22.5877 25.5432C18.4762 27.4459 14.2394 30.7242 14.8123 35.1916C14.8195 35.2651 15.242 38.4979 16.0821 44.9384C15.3065 44.5001 14.0902 44.0087 12.826 44.4037C12.5813 44.4802 12.4448 44.7407 12.5213 44.9855C12.5978 45.2302 12.8578 45.3665 13.103 45.2903C14.4062 44.8823 15.7231 45.7838 16.2189 46.1231C16.2476 46.1427 16.2726 46.1596 16.2959 46.1754C16.4294 46.4076 16.5715 46.6369 16.7208 46.8635C15.9241 47.4278 14.4719 48.9319 14.9719 52.2048C15.007 52.4345 15.205 52.5991 15.4304 52.5991C15.7158 52.5991 15.9329 52.3451 15.89 52.0644C15.462 49.2631 16.6595 48.0436 17.2555 47.6213C17.7161 48.23 18.235 48.8157 18.8055 49.377C18.4297 50.4114 18.254 52.2075 19.7648 53.2461C19.8451 53.3014 19.9367 53.3278 20.0275 53.3278C20.4828 53.3278 20.6659 52.7384 20.291 52.4808C19.3407 51.8274 19.4021 50.7595 19.5654 50.0838C25.1609 54.9991 33.8524 57.0718 41.5153 56.986C40.1243 57.7332 38.5575 58.9622 37.6908 60.9264C37.555 61.2343 37.7823 61.5783 38.1155 61.5783C38.2938 61.5783 38.4639 61.4749 38.5406 61.3012C40.0679 57.8394 44.2409 56.899 44.4629 56.8516C45.8284 56.7413 47.1664 56.5656 48.4678 56.3288C47.5006 60.3447 47.9477 64.7865 51.5742 66.7364C51.8012 66.8582 52.0821 66.7724 52.2031 66.5473C52.3246 66.3213 52.2399 66.0398 52.014 65.9183C47.7145 63.6067 49.1176 57.4579 49.4796 56.1304C50.6839 55.8777 51.8533 55.5724 52.9791 55.2162C53.441 55.963 54.7532 57.5051 57.7153 57.5051C58.2052 57.5051 58.7408 57.4628 59.3245 57.3677C59.5777 57.3265 59.7494 57.0879 59.7083 56.8347C59.6671 56.5816 59.4281 56.4103 59.1753 56.4509C55.8769 56.9879 54.4256 55.6484 53.8929 54.9139C58.2965 53.3811 61.9706 51.0596 64.3836 48.1494C64.4309 48.0924 64.4639 48.0247 64.4798 47.9523L67.1195 35.8764C67.2306 35.3785 67.2978 34.9635 67.2978 34.4085C67.2979 31.0275 64.5181 27.879 59.4707 25.5432ZM63.5969 47.6426C59.6029 52.3878 53.2219 54.1173 52.9857 54.2432C41.7051 57.9201 27.0812 55.944 19.7103 48.9673C19.6279 48.8683 18.2271 47.6532 17.1252 45.7549L16.1758 38.4758C17.4756 40.2747 19.6454 41.9126 22.5875 43.274C32.7951 47.9978 49.2611 47.9987 59.4706 43.274C62.1332 42.0419 64.1641 40.5833 65.4895 38.9839L63.5969 47.6426ZM59.0806 42.4313C49.1188 47.0411 32.9396 47.0413 22.9776 42.4313C18.2776 40.2562 15.6891 37.4071 15.6891 34.4087C15.6891 32.4136 16.8365 30.4849 18.988 28.7766H22.6243C20.3781 30.4294 19.175 32.3672 19.175 34.4087C19.175 37.2441 21.4955 39.8795 25.7093 41.8295C34.1912 45.7547 47.8651 45.7557 56.3491 41.8295C59.638 40.3075 61.7733 38.3679 62.5524 36.2416H66.0407C65.2088 38.5544 62.8104 40.7052 59.0806 42.4313ZM26.0992 27.8306C34.3353 24.0193 47.7225 24.019 55.9589 27.8306C63.9489 31.5283 63.9598 37.2841 55.9589 40.9866C47.7229 44.7979 34.3356 44.7982 26.0992 40.9866C18.0107 37.2435 18.1999 31.4864 26.0992 27.8306ZM66.2889 35.3128H62.8022C62.855 35.0141 62.8834 34.7126 62.8834 34.4087C62.8834 31.5732 60.5628 28.9377 56.3491 26.9878C47.2809 22.7911 32.2487 23.0891 24.0506 27.8478H20.2908C29.4488 21.9584 47.9108 21.217 59.0806 26.3859C62.8799 28.1442 67.0049 31.2217 66.2889 35.3128Z" fill="#325CC8"/>
</g>
</g>
</svg>
