<svg width="83" height="82" viewBox="0 0 83 82" fill="none" xmlns="http://www.w3.org/2000/svg">
<ellipse cx="41.251" cy="41" rx="41.251" ry="41" fill="#01257F" fill-opacity="0.1"/>
<path d="M53.0928 56.5792H48.2929C47.9126 56.5792 47.6044 56.8939 47.6044 57.2823C47.6044 57.5656 47.5701 57.8408 47.5066 58.1044H45.5613V57.1036C45.5613 55.2948 44.1203 53.8232 42.3492 53.8232C42.0217 53.8232 41.7056 53.8738 41.4077 53.9673L40.5634 51.5988L40.9698 51.4478C41.4679 52.5435 42.5445 53.2147 43.6845 53.2147C44.0234 53.2147 44.3681 53.1553 44.7046 53.0303L46.8821 52.2209C46.9575 52.1929 47.0307 52.1612 47.1025 52.1277C47.1215 52.1188 47.1408 52.1105 47.1596 52.1012C47.1742 52.094 47.1884 52.0861 47.2029 52.0787C47.2343 52.0627 47.2657 52.0467 47.2963 52.0295C47.3002 52.0273 47.3039 52.025 47.3077 52.0228C47.859 51.7127 48.2989 51.2347 48.5699 50.6412C48.8377 50.0547 48.9145 49.4115 48.7988 48.7879C48.7964 48.775 48.7945 48.7621 48.792 48.7492C48.7873 48.7258 48.7817 48.7026 48.7766 48.6793C48.7704 48.6515 48.7646 48.6237 48.7576 48.5959C48.7572 48.594 48.7565 48.5921 48.7561 48.5902C48.732 48.4948 48.7036 48.3997 48.6699 48.3052L48.1045 46.7188C48.1039 46.717 48.103 46.7155 48.1024 46.7137L46.4682 42.1272C46.3382 41.7623 45.9434 41.5739 45.5859 41.7069C45.2285 41.8396 45.0444 42.2431 45.1744 42.608L46.575 46.539L41.3641 48.476L38.8459 41.4092C38.9066 41.2505 38.9096 41.0743 38.8522 40.9133L37.9393 38.3517C37.8796 38.1842 37.7637 38.0546 37.6216 37.9755L37.2374 36.8978L37.377 36.8458C38.4868 36.433 39.7178 37.0198 40.1217 38.1529L40.8203 40.1134C40.8829 40.2886 41.0108 40.4314 41.1763 40.5101C41.2684 40.5539 41.3677 40.576 41.4673 40.576C41.5469 40.576 41.6266 40.5619 41.7028 40.5336L44.1155 39.6368L44.2131 39.9108C44.315 40.1964 44.5789 40.3737 44.8602 40.3737C44.9384 40.3737 45.0179 40.36 45.0956 40.3311C45.453 40.1982 45.6371 39.7948 45.507 39.4299L44.0548 35.3556C44.0213 35.2615 43.9854 35.1687 43.9475 35.077C43.9472 35.0762 43.9468 35.0756 43.9466 35.0749C43.3962 33.7438 42.3965 32.6827 41.105 32.0676C39.9064 31.4967 38.5812 31.37 37.3159 31.6943C37.3099 31.6958 37.304 31.697 37.298 31.6985C37.2241 31.7177 37.1507 31.7394 37.0772 31.7616C37.057 31.7677 37.0368 31.7727 37.0166 31.7791C36.9483 31.8007 36.8806 31.8248 36.8128 31.849C36.7893 31.8573 36.7657 31.8644 36.7423 31.8732L35.5945 32.2997L34.663 29.6855C34.5329 29.3206 34.1383 29.1324 33.7806 29.2652L32.7421 29.6511L28.3978 17.4627C28.2988 17.1849 28.0403 17 27.7508 17H25.5228C24.5589 17 23.648 17.4302 23.0236 18.1802C22.3991 18.9303 22.13 19.9177 22.2852 20.8899L22.354 21.3193C22.4154 21.7024 22.769 21.9619 23.1447 21.8995C23.5199 21.8368 23.7742 21.4752 23.7128 21.092L23.644 20.6631C23.5541 20.0993 23.7102 19.5263 24.0725 19.0911C24.435 18.6558 24.9635 18.4062 25.5228 18.4062H27.2688L31.4482 30.1323L30.5035 30.4834C30.3318 30.5472 30.192 30.6779 30.1149 30.8471C30.0377 31.0162 30.0295 31.2096 30.092 31.3848L30.6502 32.9494C30.7802 33.3142 31.1749 33.5022 31.5327 33.3693C31.89 33.2364 32.074 32.8328 31.9439 32.468L31.6215 31.5643L33.6045 30.8274L36.2436 38.2338L34.2606 38.971L32.8877 35.1177C32.7577 34.7528 32.363 34.5645 32.0054 34.6974C31.648 34.8301 31.4638 35.2336 31.5938 35.5985L33.0279 39.6233C32.8541 39.796 32.7093 39.9998 32.6039 40.231C32.3755 40.7311 32.3515 41.2921 32.5363 41.8108C32.7212 42.3294 33.0927 42.7435 33.5824 42.9767C33.809 43.0846 34.0484 43.1472 34.2905 43.1653L36.7334 50.0212C36.8386 50.316 37.1217 50.5034 37.4289 50.4822C38.0771 50.4357 38.6894 50.8392 38.913 51.4647C38.9642 51.608 39.0565 51.7239 39.1711 51.8037L40.1941 54.6734C39.5454 55.2741 39.1371 56.1411 39.1371 57.1036V58.1528C37.5415 58.4263 36.3215 59.8461 36.3215 61.5522C36.3215 63.4533 37.8359 65 39.6974 65H44.2321H58.0691C58.4494 65 58.7575 64.6853 58.7575 64.2969V62.3644C58.7575 59.1744 56.2164 56.5792 53.0928 56.5792ZM47.0455 47.8608L47.3754 48.7865C47.4044 48.8679 47.425 48.9507 47.4412 49.0341C47.4458 49.0581 47.4517 49.082 47.4552 49.106C47.4577 49.1227 47.4584 49.1394 47.4604 49.156C47.4648 49.1943 47.4695 49.2327 47.4713 49.2708C47.4715 49.2753 47.4712 49.2798 47.4714 49.2843C47.4938 49.8662 47.2103 50.4262 46.7232 50.7417C46.7164 50.7461 46.7102 50.7511 46.7035 50.7553C46.6729 50.7745 46.6404 50.7913 46.6083 50.8086C46.5922 50.8172 46.5768 50.8271 46.5603 50.8351C46.5373 50.8465 46.5128 50.8557 46.4889 50.8659C46.4629 50.8771 46.4376 50.8894 46.4109 50.8993L44.2333 51.7084C43.3969 52.0196 42.4689 51.5773 42.1645 50.7234L41.8347 49.7978L47.0455 47.8608ZM40.514 57.1036C40.514 56.0701 41.3372 55.2295 42.3491 55.2295C43.3611 55.2294 44.1842 56.0701 44.1842 57.1036V58.1044H40.514V57.1036ZM36.069 33.6203L37.2129 33.1951C37.7172 33.0076 38.2408 32.9197 38.7618 32.9278C39.3632 32.9373 39.9612 33.0752 40.5226 33.3426C41.5704 33.8415 42.3652 34.7274 42.7606 35.837L43.6441 38.3158L41.8786 38.972L41.4154 37.6722C41.0939 36.7704 40.4478 36.0503 39.5961 35.6446C39.1231 35.4194 38.6181 35.3061 38.1113 35.3061C37.7055 35.3061 37.2985 35.3787 36.9058 35.5247L36.7662 35.5767L36.069 33.6203ZM34.6033 41.7417C34.597 41.7432 34.5906 41.7448 34.5842 41.7464C34.4438 41.7803 34.2971 41.7657 34.1641 41.7023C34.0077 41.6277 33.889 41.4954 33.8301 41.3298C33.7711 41.1642 33.7788 40.985 33.8517 40.8253C33.9143 40.688 34.0189 40.5794 34.15 40.5133C34.1529 40.5119 34.1557 40.5103 34.1586 40.5087C34.1774 40.4997 34.1965 40.4913 34.2163 40.484L36.8805 39.4937L37.3224 40.7339L34.6582 41.7243C34.6401 41.7311 34.6218 41.7367 34.6033 41.7417ZM39.8903 50.3523C39.4288 49.6583 38.6874 49.1939 37.8679 49.0929L35.6447 42.854L37.6272 42.1171L40.4837 50.1318L39.8903 50.3523ZM44.8932 60.6597C44.8479 60.6688 44.8024 60.6773 44.7566 60.6847C44.7376 60.6877 44.7183 60.6901 44.6992 60.6927C44.6621 60.698 44.625 60.7033 44.5876 60.7073C44.5566 60.7106 44.5252 60.7127 44.4939 60.7152C44.4667 60.7173 44.4397 60.72 44.4123 60.7215C44.3526 60.7247 44.2925 60.7266 44.232 60.7266C43.8517 60.7265 43.5436 61.0412 43.5436 61.4296V63.5938H39.6974C38.5951 63.5938 37.6984 62.6778 37.6984 61.5522C37.6984 60.4264 38.5952 59.5107 39.6974 59.5107H39.8255H44.8727H46.8005C46.323 60.0839 45.6657 60.4963 44.918 60.6548C44.9097 60.6565 44.9014 60.6581 44.8932 60.6597ZM44.9205 63.5938V62.0826C44.9405 62.0797 44.9599 62.075 44.9798 62.0718C45.0392 62.0622 45.0984 62.0516 45.1571 62.0397C45.2032 62.0305 45.2492 62.0207 45.2948 62.0101C45.3133 62.0058 45.3317 62.0008 45.3502 61.9962C46.5704 61.6979 47.6222 60.919 48.2801 59.8161C48.2844 59.809 48.2887 59.8017 48.2929 59.7944C48.3357 59.7218 48.3771 59.6481 48.4165 59.5727C48.4436 59.5213 48.4699 59.4694 48.4952 59.417C48.508 59.3901 48.5211 59.3633 48.5336 59.336C48.572 59.2523 48.6082 59.1673 48.642 59.0812C48.644 59.0761 48.6464 59.0714 48.6483 59.0664C48.6498 59.0627 48.6505 59.0589 48.6519 59.0551C48.783 58.7154 48.8784 58.3574 48.9316 57.9854H53.0928C55.4572 57.9854 57.3806 59.9498 57.3806 62.3644V63.5938H44.9205Z" fill="#325CC8"/>
<path d="M33.7406 63.5938H25.0088C24.6285 63.5938 24.3203 63.9085 24.3203 64.2969C24.3203 64.6853 24.6285 65 25.0088 65H33.7406C34.1209 65 34.4291 64.6853 34.4291 64.2969C34.4291 63.9085 34.1209 63.5938 33.7406 63.5938Z" fill="#325CC8"/>
<path d="M32.1868 57.4014H25.0088C24.6285 57.4014 24.3203 57.7161 24.3203 58.1045C24.3203 58.4929 24.6286 58.8076 25.0088 58.8076H32.1868C32.5672 58.8076 32.8753 58.4929 32.8753 58.1045C32.8753 57.7161 32.5672 57.4014 32.1868 57.4014Z" fill="#325CC8"/>
<path d="M30.2047 51.209H25.0088C24.6285 51.209 24.3203 51.5237 24.3203 51.9121C24.3203 52.3004 24.6286 52.6152 25.0088 52.6152H30.2047C30.585 52.6152 30.8932 52.3005 30.8932 51.9121C30.8932 51.5237 30.585 51.209 30.2047 51.209Z" fill="#325CC8"/>
</svg>
