<svg width="83" height="82" viewBox="0 0 83 82" fill="none" xmlns="http://www.w3.org/2000/svg">
<g id="Group 1360">
<ellipse id="Ellipse 309" cx="41.251" cy="41" rx="41.251" ry="41" fill="#01257F" fill-opacity="0.1"/>
<g id="Group 39507">
<g id="Group">
<g id="Group_2">
<path id="Vector" d="M47.2274 24.032C47.1811 24.032 47.1349 24.0151 47.0987 23.981C46.6679 23.576 46.4307 23.027 46.4307 22.4349C46.4307 21.256 47.3883 20.2967 48.5652 20.2967C49.1738 20.2967 49.7523 20.5553 50.1523 21.0061C50.2211 21.0839 50.2141 21.2026 50.1365 21.2714C50.0587 21.3399 49.94 21.3333 49.8712 21.2556C49.5426 20.885 49.0664 20.6725 48.5652 20.6725C47.5954 20.6725 46.8064 21.4632 46.8064 22.4349C46.8064 22.9222 47.0017 23.374 47.356 23.7072C47.4316 23.7782 47.4352 23.8971 47.3642 23.9727C47.3274 24.0122 47.2775 24.032 47.2274 24.032Z" fill="#325CC8" stroke="#325CC8" stroke-width="0.4"/>
</g>
<g id="Group_3">
<path id="Vector_2" d="M67.8169 24.7353C67.7131 24.7353 67.6291 24.6513 67.6291 24.5474V18.5461C67.6291 18.1674 67.4817 17.8117 67.2144 17.5441C66.9469 17.2768 66.5911 17.1295 66.2124 17.1295C65.7669 17.1295 65.3415 17.3441 65.0744 17.7038L64.0184 19.1243C63.9568 19.2074 63.8392 19.225 63.7555 19.163C63.6722 19.101 63.6549 18.9834 63.7168 18.9001L64.7727 17.4795C65.1103 17.025 65.6485 16.7537 66.2124 16.7537C66.6914 16.7537 67.1417 16.9401 67.4801 17.2784C67.8184 17.6168 68.0048 18.0671 68.0048 18.5461V24.5474C68.0048 24.6513 67.9208 24.7353 67.8169 24.7353Z" fill="#325CC8" stroke="#325CC8" stroke-width="0.4"/>
</g>
<g id="Group_4">
<path id="Vector_3" d="M63.5606 21.5261C63.5228 21.5261 63.4848 21.5147 63.4518 21.4912C63.3672 21.431 63.3476 21.3136 63.4078 21.2292L63.9302 20.4963C64.0527 20.3277 64.117 20.1295 64.117 19.9215C64.117 19.6251 63.9817 19.34 63.7553 19.1589L63.7048 19.116C63.2548 18.7963 62.6331 18.9 62.3155 19.3431L61.854 19.9961C61.7944 20.0809 61.6771 20.1013 61.5922 20.0411C61.5074 19.9813 61.4872 19.864 61.5472 19.7793L62.0094 19.1253C62.4481 18.5136 63.3036 18.371 63.9175 18.8062C63.9426 18.8229 63.981 18.8488 64.0168 18.8916C64.3048 19.1173 64.4927 19.5119 64.4927 19.9215C64.4927 20.2095 64.4037 20.4842 64.2351 20.7158L63.7138 21.4472C63.6771 21.4987 63.6193 21.5261 63.5606 21.5261Z" fill="#325CC8" stroke="#325CC8" stroke-width="0.4"/>
</g>
<g id="Group_5">
<path id="Vector_4" d="M53.9342 27.9278C53.856 27.9278 53.7832 27.8788 53.7564 27.8008L53.6663 27.5377C53.5355 27.1601 53.5593 26.754 53.7337 26.3948C53.908 26.0355 54.2124 25.7656 54.5905 25.6346L58.0247 24.4397C58.8015 24.1709 59.6553 24.5854 59.9285 25.3627L60.1957 26.134C60.2296 26.232 60.1775 26.3392 60.0795 26.3731C59.9808 26.4065 59.8742 26.3551 59.8404 26.257L59.5736 25.4865C59.3691 24.9043 58.73 24.5931 58.148 24.7948L54.7138 25.9896C54.4302 26.0878 54.2023 26.2898 54.0718 26.5588C53.9414 26.8278 53.9236 27.1318 54.0217 27.4153L54.112 27.679C54.1456 27.7772 54.0933 27.8841 53.9951 27.9177C53.9749 27.9245 53.9544 27.9278 53.9342 27.9278Z" fill="#325CC8" stroke="#325CC8" stroke-width="0.4"/>
</g>
<g id="Group_6">
<g id="Vector_5">
<path d="M60.8808 34.3278H45.3124C45.2331 34.3278 45.1623 34.2779 45.1355 34.2032L44.7935 33.2487C44.577 32.6396 44.485 32.0144 44.5199 31.39C44.5348 31.1095 44.5575 30.8363 44.5843 30.5631C44.7896 28.5583 45.3254 26.7383 46.1764 25.1526C49.5402 18.9033 57.0276 17.7066 60.9171 19.2688C62.8819 20.0618 65.8657 23.1563 67.3149 25.4376C68.2213 26.8645 67.9097 28.7398 66.5901 29.7994L60.9984 34.2865C60.965 34.3133 60.9235 34.3278 60.8808 34.3278ZM45.4447 33.952H60.8147L66.3549 29.5064C67.525 28.5667 67.8013 26.9042 66.9978 25.639C65.582 23.4102 62.6208 20.3616 60.7767 19.6174C57.0147 18.1064 49.7687 19.2717 46.5074 25.3304C45.6797 26.8726 45.1584 28.6458 44.9582 30.6003C44.9322 30.8675 44.9098 31.1352 44.8951 31.4106C44.863 31.9852 44.948 32.561 45.1474 33.1225L45.4447 33.952ZM55.5766 30.9025C55.0296 30.9025 54.498 30.8401 53.9955 30.7142C52.587 30.3612 51.5736 29.5519 51.1421 28.4355C50.7125 27.3276 50.9256 25.9658 51.7265 24.6994C52.5355 23.4203 53.8193 22.3908 55.3417 21.8007C56.8527 21.2154 58.4571 21.1271 59.8597 21.5522C61.2277 21.9671 62.2595 22.8445 62.6907 23.9599C63.1241 25.0757 62.9211 26.3568 62.1193 27.5665C61.3307 28.7561 60.0529 29.7381 58.5211 30.3319C57.5441 30.71 56.5369 30.9025 55.5766 30.9025ZM58.0215 21.6625C57.1817 21.6625 56.3151 21.8264 55.4775 22.1511C54.0507 22.7042 52.7991 23.7062 52.0439 24.9003C51.3074 26.0649 51.1065 27.304 51.4925 28.2999C51.8788 29.2992 52.8002 30.0271 54.0868 30.3497C55.3967 30.6781 56.9239 30.5471 58.3854 29.9814C59.8454 29.4155 61.06 28.4842 61.8059 27.3588C62.5386 26.2537 62.7283 25.0948 62.3402 24.0957C61.951 23.0888 61.0072 22.2928 59.7507 21.9119C59.2013 21.7453 58.618 21.6625 58.0215 21.6625Z" fill="#325CC8"/>
<path d="M58.4533 30.1566H58.4569M60.8808 34.3278H45.3124C45.2331 34.3278 45.1623 34.2779 45.1355 34.2032L44.7935 33.2487C44.577 32.6396 44.485 32.0144 44.5199 31.39C44.5348 31.1095 44.5575 30.8363 44.5843 30.5631C44.7896 28.5583 45.3254 26.7383 46.1764 25.1526C49.5402 18.9033 57.0276 17.7066 60.9171 19.2688C62.8819 20.0618 65.8657 23.1563 67.3149 25.4376C68.2213 26.8645 67.9097 28.7398 66.5901 29.7994L60.9984 34.2865C60.965 34.3133 60.9235 34.3278 60.8808 34.3278ZM45.4447 33.952H60.8147L66.3549 29.5064C67.525 28.5667 67.8013 26.9042 66.9978 25.639C65.582 23.4102 62.6208 20.3616 60.7767 19.6174C57.0147 18.1064 49.7687 19.2717 46.5074 25.3304C45.6797 26.8726 45.1584 28.6458 44.9582 30.6003C44.9322 30.8675 44.9098 31.1352 44.8951 31.4106C44.863 31.9852 44.948 32.561 45.1474 33.1225L45.4447 33.952ZM55.5766 30.9025C55.0296 30.9025 54.498 30.8401 53.9955 30.7142C52.587 30.3612 51.5736 29.5519 51.1421 28.4355C50.7125 27.3276 50.9256 25.9658 51.7265 24.6994C52.5355 23.4203 53.8193 22.3908 55.3417 21.8007C56.8527 21.2154 58.4571 21.1271 59.8597 21.5522C61.2277 21.9671 62.2595 22.8445 62.6907 23.9599C63.1241 25.0757 62.9211 26.3568 62.1193 27.5665C61.3307 28.7561 60.0529 29.7381 58.5211 30.3319C57.5441 30.71 56.5369 30.9025 55.5766 30.9025ZM58.0215 21.6625C57.1817 21.6625 56.3151 21.8264 55.4775 22.1511C54.0507 22.7042 52.7991 23.7062 52.0439 24.9003C51.3074 26.0649 51.1065 27.304 51.4925 28.2999C51.8788 29.2992 52.8002 30.0271 54.0868 30.3497C55.3967 30.6781 56.9239 30.5471 58.3854 29.9814C59.8454 29.4155 61.06 28.4842 61.8059 27.3588C62.5386 26.2537 62.7283 25.0948 62.3402 24.0957C61.951 23.0888 61.0072 22.2928 59.7507 21.9119C59.2013 21.7453 58.618 21.6625 58.0215 21.6625Z" stroke="#325CC8" stroke-width="0.4"/>
</g>
</g>
<g id="Group_7">
<path id="Vector_6" d="M60.7779 36.9001H45.1591C44.3477 36.9001 43.6875 36.2399 43.6875 35.4286C43.6875 35.0355 43.8411 34.6653 44.1202 34.3864C44.395 34.1077 44.7644 33.9537 45.1591 33.9537H60.7779C61.5893 33.9537 62.2495 34.6154 62.2495 35.4286C62.2495 35.8199 62.0957 36.1889 61.8168 36.4676C61.5383 36.7464 61.1693 36.9001 60.7779 36.9001ZM45.1591 34.3295C44.8657 34.3295 44.5914 34.4438 44.3868 34.6511C44.1778 34.8601 44.0633 35.1359 44.0633 35.4286C44.0633 36.0328 44.5548 36.5243 45.1591 36.5243H60.7779C61.0687 36.5243 61.3434 36.4099 61.5509 36.2018C61.7592 35.9941 61.8737 35.7194 61.8737 35.4286C61.8737 34.8225 61.3821 34.3295 60.7779 34.3295H45.1591Z" fill="#325CC8" stroke="#325CC8" stroke-width="0.4"/>
</g>
<g id="Group_8">
<g id="Vector_7">
<path d="M47.47 30.9559C47.4399 30.9559 47.4098 30.955 47.3794 30.9529L44.755 30.7704C44.7042 30.7667 44.657 30.7427 44.6242 30.7038C44.5913 30.6647 44.5759 30.614 44.581 30.5634C44.7897 28.5559 45.3262 26.7361 46.1757 25.1542C46.1999 25.1093 46.2414 25.0761 46.2906 25.0623C46.3399 25.0486 46.3924 25.0553 46.4366 25.0814L49.2623 26.746C49.5755 26.9289 49.7952 27.2245 49.8801 27.5781C49.9654 27.9337 49.9036 28.2994 49.7058 28.6076L48.5887 30.3478C48.3416 30.7287 47.9192 30.9559 47.47 30.9559ZM44.9761 30.4089L47.4053 30.5779C47.75 30.6032 48.084 30.4351 48.273 30.1441L49.3895 28.4047C49.5315 28.1834 49.5759 27.921 49.5146 27.6658C49.4539 27.4128 49.2966 27.2012 49.072 27.07L46.4157 25.5051C45.6686 26.9515 45.1849 28.5996 44.9761 30.4089Z" fill="#325CC8"/>
<path d="M49.5476 28.5062H49.5513M47.47 30.9559C47.4399 30.9559 47.4098 30.955 47.3794 30.9529L44.755 30.7704C44.7042 30.7667 44.657 30.7427 44.6242 30.7038C44.5913 30.6647 44.5759 30.614 44.581 30.5634C44.7897 28.5559 45.3262 26.7361 46.1757 25.1542C46.1999 25.1093 46.2414 25.0761 46.2906 25.0623C46.3399 25.0486 46.3924 25.0553 46.4366 25.0814L49.2623 26.746C49.5755 26.9289 49.7952 27.2245 49.8801 27.5781C49.9654 27.9337 49.9036 28.2994 49.7058 28.6076L48.5887 30.3478C48.3416 30.7287 47.9192 30.9559 47.47 30.9559ZM44.9761 30.4089L47.4053 30.5779C47.75 30.6032 48.084 30.4351 48.273 30.1441L49.3895 28.4047C49.5315 28.1834 49.5759 27.921 49.5146 27.6658C49.4539 27.4128 49.2966 27.2012 49.072 27.07L46.4157 25.5051C45.6686 26.9515 45.1849 28.5996 44.9761 30.4089Z" stroke="#325CC8" stroke-width="0.4"/>
</g>
</g>
<g id="Group_9">
<path id="Vector_8" d="M55.5814 30.9029C55.0341 30.9029 54.5022 30.8404 53.9992 30.7141C52.5912 30.3607 51.5778 29.5512 51.1457 28.435C50.8691 27.7211 50.8543 26.8991 51.1029 26.058C51.1231 25.9895 51.1803 25.9385 51.2504 25.9262C51.3223 25.9139 51.3919 25.9424 51.4341 25.9994C52.5223 27.4717 54.8722 28.0857 57.1511 27.4932C59.7513 26.8161 61.5904 24.7741 61.4289 22.7435C61.4229 22.6668 61.4642 22.594 61.5333 22.56C61.6025 22.5261 61.6853 22.5378 61.7425 22.5894C62.1731 22.9796 62.4933 23.4398 62.6942 23.9569C63.1278 25.0745 62.9243 26.3563 62.1216 27.5668C61.3324 28.7565 60.0541 29.7387 58.5218 30.3326C57.5464 30.7106 56.5407 30.9029 55.5814 30.9029ZM51.375 26.5198C51.2477 27.1539 51.2882 27.7629 51.4961 28.2993C51.8829 29.2985 52.8044 30.0268 54.0906 30.3497C55.4007 30.6787 56.9262 30.5481 58.386 29.9822C59.8465 29.4161 61.062 28.4846 61.8084 27.3591C62.542 26.2532 62.732 25.0934 62.344 24.0928C62.2177 23.7681 62.0383 23.4679 61.8084 23.1963C61.6893 25.238 59.8176 27.1872 57.2458 27.8569C54.942 28.4565 52.6405 27.9191 51.375 26.5198Z" fill="#325CC8" stroke="#325CC8" stroke-width="0.4"/>
</g>
</g>
<g id="Group_10">
<g id="Group_11">
<g id="Group_12">
<path id="Vector_9" d="M49.1512 65.3051H47.2422C46.7242 65.3051 46.3027 64.8838 46.3027 64.3656V62.7348C46.3027 62.6309 46.3868 62.5469 46.4906 62.5469C46.5945 62.5469 46.6785 62.6309 46.6785 62.7348V64.3656C46.6785 64.6816 46.926 64.9293 47.2422 64.9293H49.1512C49.462 64.9293 49.7148 64.6764 49.7148 64.3656V62.7385C49.7148 62.6346 49.7989 62.5506 49.9027 62.5506C50.0066 62.5506 50.0906 62.6346 50.0906 62.7385V64.3656C50.0906 64.8838 49.6691 65.3051 49.1512 65.3051Z" fill="#325CC8" stroke="#325CC8" stroke-width="0.4"/>
</g>
<g id="Group_13">
<path id="Vector_10" d="M64.1863 65.3055H62.2773C61.7594 65.3055 61.3379 64.8842 61.3379 64.3661V62.7389C61.3379 62.6351 61.4219 62.551 61.5258 62.551C61.6296 62.551 61.7137 62.6351 61.7137 62.7389V64.3661C61.7137 64.682 61.9612 64.9297 62.2773 64.9297H64.1863C64.4971 64.9297 64.75 64.6769 64.75 64.3661V62.7353C64.75 62.6314 64.834 62.5474 64.9379 62.5474C65.0417 62.5474 65.1258 62.6314 65.1258 62.7353V64.3661C65.1258 64.8842 64.7043 65.3055 64.1863 65.3055Z" fill="#325CC8" stroke="#325CC8" stroke-width="0.4"/>
</g>
</g>
<g id="Group_14">
<path id="Vector_11" d="M64.8271 62.9258H46.5868C44.8815 62.9258 43.4941 61.5383 43.4941 59.833V44.1958C43.4941 42.4885 44.8815 41.0993 46.5868 41.0993H64.8271C66.5324 41.0993 67.9198 42.4885 67.9198 44.1958V59.833C67.9198 61.5383 66.5324 62.9258 64.8271 62.9258ZM46.5868 41.4751C45.0886 41.4751 43.8699 42.6956 43.8699 44.1958V59.833C43.8699 61.3314 45.0886 62.5501 46.5868 62.5501H64.8271C66.3253 62.5501 67.544 61.3314 67.544 59.833V44.1958C67.544 42.6956 66.3253 41.4751 64.8271 41.4751H46.5868Z" fill="#325CC8" stroke="#325CC8" stroke-width="0.4"/>
</g>
<g id="Group_15">
<path id="Vector_12" d="M64.8271 61.0467H46.5868C45.9174 61.0467 45.373 60.5021 45.373 59.8328V48.3266C45.373 47.6552 45.9174 47.1091 46.5868 47.1091H64.8271C65.4965 47.1091 66.0409 47.6552 66.0409 48.3266V59.8328C66.0409 60.5021 65.4965 61.0467 64.8271 61.0467ZM46.5868 47.4849C46.1248 47.4849 45.7488 47.8625 45.7488 48.3266V59.8328C45.7488 60.2948 46.1248 60.6709 46.5868 60.6709H64.8271C65.2891 60.6709 65.6651 60.2948 65.6651 59.8328V48.3266C65.6651 47.8625 65.2891 47.4849 64.8271 47.4849H46.5868Z" fill="#325CC8" stroke="#325CC8" stroke-width="0.4"/>
</g>
<g id="Group_16">
<g id="Group_17">
<path id="Vector_13" d="M50.3856 45.7344C49.626 45.7344 49.0078 45.1163 49.0078 44.3566C49.0078 43.597 49.626 42.9788 50.3856 42.9788C51.1454 42.9788 51.7636 43.597 51.7636 44.3566C51.7636 45.1163 51.1454 45.7344 50.3856 45.7344ZM50.3856 43.3546C49.8331 43.3546 49.3836 43.8042 49.3836 44.3566C49.3836 44.9091 49.8331 45.3586 50.3856 45.3586C50.9383 45.3586 51.3878 44.9091 51.3878 44.3566C51.3878 43.8042 50.9383 43.3546 50.3856 43.3546Z" fill="#325CC8" stroke="#325CC8" stroke-width="0.4"/>
</g>
</g>
<g id="Group_18">
<g id="Group_19">
<path id="Vector_14" d="M51.6605 49.8036H49.124C48.5106 49.8036 48.0117 49.3047 48.0117 48.6913V47.297C48.0117 47.1931 48.0958 47.1091 48.1996 47.1091H52.5849C52.6888 47.1091 52.7728 47.1931 52.7728 47.297V48.6913C52.7728 49.3047 52.2739 49.8036 51.6605 49.8036ZM48.3875 47.4849V48.6913C48.3875 49.0973 48.718 49.4278 49.124 49.4278H51.6605C52.0666 49.4278 52.397 49.0973 52.397 48.6913V47.4849H48.3875Z" fill="#325CC8" stroke="#325CC8" stroke-width="0.4"/>
</g>
<g id="Group_20">
<path id="Vector_15" d="M50.3781 51.7157C49.74 51.7157 49.2207 51.1947 49.2207 50.5546V49.6151C49.2207 49.5113 49.3047 49.4272 49.4086 49.4272H51.3513C51.4552 49.4272 51.5392 49.5113 51.5392 49.6151V50.5546C51.5392 51.1947 51.0183 51.7157 50.3781 51.7157ZM49.5965 49.803V50.5546C49.5965 50.9876 49.9471 51.3399 50.3781 51.3399C50.8112 51.3399 51.1635 50.9876 51.1635 50.5546V49.803H49.5965Z" fill="#325CC8" stroke="#325CC8" stroke-width="0.4"/>
</g>
</g>
<g id="Group_21">
<path id="Vector_16" d="M60.7694 45.7342C60.0098 45.7342 59.3916 45.1161 59.3916 44.3565C59.3916 43.5968 60.0098 42.9787 60.7694 42.9787C61.5292 42.9787 62.1474 43.5968 62.1474 44.3565C62.1474 45.1161 61.5292 45.7342 60.7694 45.7342ZM60.7694 43.3544C60.2169 43.3544 59.7674 43.804 59.7674 44.3565C59.7674 44.9089 60.2169 45.3585 60.7694 45.3585C61.3221 45.3585 61.7716 44.9089 61.7716 44.3565C61.7716 43.804 61.3221 43.3544 60.7694 43.3544Z" fill="#325CC8" stroke="#325CC8" stroke-width="0.4"/>
</g>
<g id="Group_22">
<g id="Group_23">
<path id="Vector_17" d="M62.0453 49.8036H59.5088C58.8954 49.8036 58.3965 49.3047 58.3965 48.6913V47.297C58.3965 47.1931 58.4805 47.1091 58.5844 47.1091H62.9697C63.0735 47.1091 63.1576 47.1931 63.1576 47.297V48.6913C63.1576 49.3047 62.6587 49.8036 62.0453 49.8036ZM58.7723 47.4849V48.6913C58.7723 49.0973 59.1027 49.4278 59.5088 49.4278H62.0453C62.4513 49.4278 62.7818 49.0973 62.7818 48.6913V47.4849H58.7723Z" fill="#325CC8" stroke="#325CC8" stroke-width="0.4"/>
</g>
<g id="Group_24">
<path id="Vector_18" d="M60.7629 51.7157C60.1247 51.7157 59.6055 51.1947 59.6055 50.5546V49.6151C59.6055 49.5113 59.6895 49.4272 59.7934 49.4272H61.7361C61.84 49.4272 61.924 49.5113 61.924 49.6151V50.5546C61.924 51.1947 61.4031 51.7157 60.7629 51.7157ZM59.9812 49.803V50.5546C59.9812 50.9876 60.3319 51.3399 60.7629 51.3399C61.1959 51.3399 61.5482 50.9876 61.5482 50.5546V49.803H59.9812Z" fill="#325CC8" stroke="#325CC8" stroke-width="0.4"/>
</g>
</g>
<g id="Group_25">
<path id="Vector_19" d="M50.9908 61.0474H49.5666C49.0389 61.0474 48.5897 60.669 48.4983 60.1475L47.5851 54.8452C47.5308 54.5299 47.6181 54.2085 47.8251 53.9626C48.0315 53.7175 48.3336 53.5769 48.6534 53.5769H51.9038C52.2236 53.5769 52.5257 53.7175 52.7321 53.9626C52.939 54.2085 53.0264 54.5299 52.9721 54.8452L52.0589 60.1472C51.9675 60.669 51.5183 61.0474 50.9908 61.0474ZM48.6534 53.9527C48.4446 53.9527 48.2475 54.0444 48.1125 54.2048C47.9772 54.3655 47.92 54.5754 47.9554 54.7813L48.8686 60.0833C48.9282 60.4239 49.2218 60.6716 49.5666 60.6716H50.9908C51.3354 60.6716 51.629 60.4239 51.6886 60.083L52.6018 54.7813C52.6372 54.5754 52.58 54.3655 52.4447 54.2048C52.3097 54.0444 52.1126 53.9527 51.9038 53.9527H48.6534Z" fill="#325CC8" stroke="#325CC8" stroke-width="0.4"/>
</g>
<g id="Group_26">
<path id="Vector_20" d="M50.9917 61.0478H49.5675C49.0398 61.0478 48.5906 60.6695 48.4993 60.148L47.782 55.9832C47.7716 55.9223 47.7916 55.8603 47.8358 55.817C47.88 55.7733 47.9439 55.7546 48.0033 55.7671C48.3303 55.8306 48.7505 55.7308 49.2383 55.6144C50.1793 55.3913 51.3505 55.1128 52.6767 55.7836C52.7505 55.821 52.791 55.9018 52.7771 55.9832L52.0598 60.1476C51.9684 60.6695 51.5193 61.0478 50.9917 61.0478ZM48.1941 56.1623L48.8695 60.0838C48.9292 60.4243 49.2228 60.672 49.5675 60.672H50.9917C51.3363 60.672 51.6299 60.4243 51.6895 60.0834L52.3827 56.0588C51.2316 55.5275 50.2205 55.7671 49.3251 55.9803C48.9062 56.0797 48.5343 56.173 48.1941 56.1623Z" fill="#325CC8" stroke="#325CC8" stroke-width="0.4"/>
</g>
<g id="Group_27">
<path id="Vector_21" d="M61.4896 61.0474H60.0654C59.5379 61.0474 59.0887 60.669 58.9972 60.1479L58.0841 54.8452C58.0298 54.5299 58.1172 54.2085 58.3241 53.9626C58.5306 53.7175 58.8326 53.5769 59.1524 53.5769H62.4028C62.7227 53.5769 63.0247 53.7175 63.2311 53.9626C63.4381 54.2085 63.5254 54.5299 63.4711 54.8452L62.5579 60.1472C62.4663 60.669 62.0172 61.0474 61.4896 61.0474ZM59.1524 53.9527C58.9436 53.9527 58.7465 54.0444 58.6115 54.2048C58.4762 54.3655 58.419 54.5754 58.4544 54.7813L59.3674 60.0833C59.4273 60.4239 59.7208 60.6716 60.0654 60.6716H61.4896C61.8342 60.6716 62.1278 60.4239 62.1876 60.0826L63.1008 54.7813C63.1362 54.5754 63.079 54.3655 62.9438 54.2048C62.8087 54.0444 62.6116 53.9527 62.4028 53.9527H59.1524Z" fill="#325CC8" stroke="#325CC8" stroke-width="0.4"/>
</g>
<g id="Group_28">
<path id="Vector_22" d="M61.4798 61.0469H60.0556C59.5281 61.0469 59.0789 60.6685 58.9873 60.1474L58.3875 56.6634C58.3747 56.5893 58.4075 56.5144 58.4706 56.4737C58.5339 56.4326 58.6156 56.4333 58.6778 56.4759C59.3791 56.9489 60.0932 56.7415 60.8495 56.521C61.5626 56.3133 62.2998 56.0993 63.0451 56.4626C63.1202 56.4993 63.162 56.5812 63.1479 56.6634L62.5481 60.1467C62.4565 60.6685 62.0073 61.0469 61.4798 61.0469ZM58.8237 56.9823L59.3576 60.0828C59.4174 60.4234 59.711 60.6711 60.0556 60.6711H61.4798C61.8244 60.6711 62.118 60.4234 62.1778 60.0821L62.7525 56.7449C62.1769 56.5258 61.582 56.699 60.9547 56.8817C60.262 57.0836 59.5495 57.2913 58.8237 56.9823Z" fill="#325CC8" stroke="#325CC8" stroke-width="0.4"/>
</g>
</g>
<g id="Group 39506">
<g id="Group_29">
<g id="Group_30">
<g id="Group_31">
<path id="Vector_23" d="M17.1322 59.1828C17.0284 59.1828 16.9443 59.0988 16.9443 58.9949V56.188C16.9443 56.0841 17.0284 56.0001 17.1322 56.0001C17.2361 56.0001 17.3201 56.0841 17.3201 56.188V58.9949C17.3201 59.0988 17.2361 59.1828 17.1322 59.1828Z" fill="#325CC8" stroke="#325CC8" stroke-width="0.4"/>
</g>
<g id="Group_32">
<path id="Vector_24" d="M17.7588 56.3744H16.5188C15.9758 56.3744 15.5342 55.9327 15.5342 55.3898V54.5482C15.5342 54.4443 15.6182 54.3603 15.7221 54.3603C15.8259 54.3603 15.91 54.4443 15.91 54.5482V55.3898C15.91 55.7256 16.183 55.9986 16.5188 55.9986H17.7588C18.0945 55.9986 18.3676 55.7256 18.3676 55.3898V54.5669C18.3676 54.463 18.4516 54.379 18.5555 54.379C18.6593 54.379 18.7433 54.463 18.7433 54.5669V55.3898C18.7433 55.9327 18.3017 56.3744 17.7588 56.3744Z" fill="#325CC8" stroke="#325CC8" stroke-width="0.4"/>
</g>
<g id="Group_33">
<path id="Vector_25" d="M17.5629 45.4782C17.459 45.4782 17.375 45.3942 17.375 45.2903V42.1713C17.375 42.0674 17.459 41.9834 17.5629 41.9834C17.6667 41.9834 17.7508 42.0674 17.7508 42.1713V45.2903C17.7508 45.3942 17.6667 45.4782 17.5629 45.4782Z" fill="#325CC8" stroke="#325CC8" stroke-width="0.4"/>
</g>
<g id="Group_34">
<path id="Vector_26" d="M17.5628 43.6027C17.5331 43.6027 17.503 43.5957 17.4749 43.5809C17.3833 43.5322 17.3483 43.4185 17.3969 43.3267C17.8619 42.451 19.7732 42.5746 21.4597 42.6844C21.7778 42.7049 22.0791 42.7245 22.3463 42.7348C23.4793 42.7721 27.8894 42.568 30.4165 42.4418C30.5165 42.4352 30.6083 42.5163 30.6136 42.6201C30.6187 42.7238 30.5389 42.8119 30.4352 42.8172C27.9026 42.9438 23.4846 43.1508 22.3325 43.1102C22.0617 43.1 21.7571 43.0801 21.4353 43.0592C20.0191 42.9671 18.0795 42.8416 17.729 43.5029C17.6953 43.5664 17.6301 43.6027 17.5628 43.6027Z" fill="#325CC8" stroke="#325CC8" stroke-width="0.4"/>
</g>
<g id="Group_35">
<path id="Vector_27" d="M32.6875 45.4767C32.5836 45.4767 32.4996 45.3927 32.4996 45.2888V42.88C32.4996 42.6248 32.4003 42.385 32.2202 42.205C32.04 42.0248 31.8002 41.9255 31.5451 41.9255C31.0963 41.9255 30.7126 42.2332 30.6121 42.674C30.6005 42.7351 30.5906 42.8059 30.5906 42.88V45.2888C30.5906 45.3927 30.5066 45.4767 30.4027 45.4767C30.2989 45.4767 30.2148 45.3927 30.2148 45.2888V42.88C30.2148 42.7927 30.2242 42.7028 30.2444 42.5969C30.3855 41.9776 30.9198 41.5498 31.5451 41.5498C31.9005 41.5498 32.2347 41.6881 32.4858 41.9393C32.737 42.1903 32.8754 42.5244 32.8754 42.88V45.2888C32.8754 45.3927 32.7914 45.4767 32.6875 45.4767Z" fill="#325CC8" stroke="#325CC8" stroke-width="0.4"/>
</g>
<g id="Group_36">
<g id="Group_37">
<path id="Vector_28" d="M35.5526 60.5542C35.4488 60.5542 35.3647 60.4702 35.3647 60.3663V47.6988C35.3647 46.4742 34.3719 45.4779 33.1513 45.4779H28.9088C28.711 45.4779 28.524 45.5372 28.3684 45.6491L27.3693 46.3355C27.1508 46.4897 26.8816 46.5752 26.6128 46.5752H22.4792C22.1825 46.5752 21.8881 46.473 21.6499 46.2875L20.8895 45.6854C20.7181 45.5519 20.507 45.4779 20.2959 45.4779H16.2226C15.6921 45.4779 15.2605 45.9095 15.2605 46.4399V53.5159C15.2605 53.8865 15.4703 54.2177 15.8079 54.3799C15.9372 54.4414 16.0809 54.474 16.2226 54.474H18.1051C18.2369 54.474 18.3648 54.4476 18.4851 54.3955C18.784 54.2702 18.9963 54.0036 19.0552 53.6812L19.3444 52.0401C19.458 51.4014 20.013 50.9379 20.6642 50.9379H27.402C28.1376 50.9379 28.7359 51.5381 28.7359 52.2757V60.1408C28.7359 60.2447 28.6519 60.3287 28.548 60.3287C28.4442 60.3287 28.3601 60.2447 28.3601 60.1408V52.2757C28.3601 51.7452 27.9302 51.3137 27.402 51.3137H20.6642C20.1954 51.3137 19.7959 51.6467 19.7143 52.1056L19.4249 53.7476C19.3431 54.1964 19.0468 54.5674 18.6325 54.7412C18.4666 54.8129 18.2886 54.8498 18.1051 54.8498H16.2226C16.0255 54.8498 15.826 54.8045 15.6459 54.719C15.1831 54.4966 14.8848 54.0245 14.8848 53.5159V46.4399C14.8848 45.7023 15.4849 45.1021 16.2226 45.1021H20.2959C20.5901 45.1021 20.8833 45.2043 21.1216 45.3898L21.882 45.9919C22.0532 46.1254 22.2658 46.1994 22.4792 46.1994H26.6128C26.8047 46.1994 26.997 46.1383 27.1546 46.0271L28.1523 45.3418C28.369 45.1858 28.6317 45.1021 28.9088 45.1021H33.1513C34.579 45.1021 35.7405 46.2671 35.7405 47.6988V60.3663C35.7405 60.4702 35.6565 60.5542 35.5526 60.5542Z" fill="#325CC8" stroke="#325CC8" stroke-width="0.4"/>
</g>
</g>
<g id="Group_38">
<path id="Vector_29" d="M35.8455 64.152H14.7538C14.3382 64.152 14 63.8138 14 63.398V61.8736C14 60.8145 14.8631 59.9529 15.924 59.9529H34.6787C35.7377 59.9529 36.5994 60.8145 36.5994 61.8736V63.398C36.5994 63.8138 36.2612 64.152 35.8455 64.152ZM15.924 60.3287C15.0703 60.3287 14.3758 61.0217 14.3758 61.8736V63.398C14.3758 63.6065 14.5453 63.7762 14.7538 63.7762H35.8455C36.0539 63.7762 36.2236 63.6065 36.2236 63.398V61.8736C36.2236 61.0217 35.5306 60.3287 34.6787 60.3287H15.924Z" fill="#325CC8" stroke="#325CC8" stroke-width="0.4"/>
</g>
<g id="Group_39">
<path id="Vector_30" d="M35.8455 64.1515H14.7538C14.3382 64.1515 14 63.8133 14 63.3975V62.526C14 62.4221 14.084 62.3381 14.1879 62.3381H36.4115C36.5154 62.3381 36.5994 62.4221 36.5994 62.526V63.3975C36.5994 63.8133 36.2612 64.1515 35.8455 64.1515ZM14.3758 62.7139V63.3975C14.3758 63.606 14.5453 63.7757 14.7538 63.7757H35.8455C36.0539 63.7757 36.2236 63.606 36.2236 63.3975V62.7139H14.3758Z" fill="#325CC8" stroke="#325CC8" stroke-width="0.4"/>
</g>
<g id="Group_40">
<g id="Group_41">
<path id="Vector_31" d="M32.105 51.9178C30.8366 51.9178 29.8047 50.8858 29.8047 49.6176C29.8047 48.3492 30.8366 47.3172 32.105 47.3172C33.3735 47.3172 34.4054 48.3492 34.4054 49.6176C34.4054 50.8858 33.3735 51.9178 32.105 51.9178ZM32.105 47.693C31.0438 47.693 30.1805 48.5563 30.1805 49.6176C30.1805 50.6787 31.0438 51.542 32.105 51.542C33.1663 51.542 34.0296 50.6787 34.0296 49.6176C34.0296 48.5563 33.1663 47.693 32.105 47.693Z" fill="#325CC8" stroke="#325CC8" stroke-width="0.4"/>
</g>
<g id="Group_42">
<path id="Vector_32" d="M32.1003 50.8769C31.4064 50.8769 30.8418 50.3123 30.8418 49.6184C30.8418 48.9244 31.4064 48.3598 32.1003 48.3598C32.7943 48.3598 33.3589 48.9244 33.3589 49.6184C33.3589 50.3123 32.7943 50.8769 32.1003 50.8769ZM32.1003 48.7356C31.6135 48.7356 31.2176 49.1316 31.2176 49.6184C31.2176 50.1052 31.6135 50.5011 32.1003 50.5011C32.5871 50.5011 32.9831 50.1052 32.9831 49.6184C32.9831 49.1316 32.5871 48.7356 32.1003 48.7356Z" fill="#325CC8" stroke="#325CC8" stroke-width="0.4"/>
</g>
<g id="Group_43">
<path id="Vector_33" d="M32.105 58.7187C30.8366 58.7187 29.8047 57.6867 29.8047 56.4183C29.8047 55.1499 30.8366 54.1179 32.105 54.1179C33.3735 54.1179 34.4054 55.1499 34.4054 56.4183C34.4054 57.6867 33.3735 58.7187 32.105 58.7187ZM32.105 54.4937C31.0438 54.4937 30.1805 55.357 30.1805 56.4183C30.1805 57.4796 31.0438 58.3429 32.105 58.3429C33.1663 58.3429 34.0296 57.4796 34.0296 56.4183C34.0296 55.357 33.1663 54.4937 32.105 54.4937Z" fill="#325CC8" stroke="#325CC8" stroke-width="0.4"/>
</g>
<g id="Group_44">
<path id="Vector_34" d="M32.1003 57.6756C31.4064 57.6756 30.8418 57.1111 30.8418 56.4171C30.8418 55.7232 31.4064 55.1586 32.1003 55.1586C32.7943 55.1586 33.3589 55.7232 33.3589 56.4171C33.3589 57.1111 32.7943 57.6756 32.1003 57.6756ZM32.1003 55.5344C31.6135 55.5344 31.2176 55.9303 31.2176 56.4171C31.2176 56.9039 31.6135 57.2999 32.1003 57.2999C32.5871 57.2999 32.9831 56.9039 32.9831 56.4171C32.9831 55.9303 32.5871 55.5344 32.1003 55.5344Z" fill="#325CC8" stroke="#325CC8" stroke-width="0.4"/>
</g>
</g>
<g id="Group_45">
<g id="Group_46">
<path id="Vector_35" d="M23.6072 47.693H16.1703C16.0665 47.693 15.9824 47.609 15.9824 47.5051C15.9824 47.4013 16.0665 47.3172 16.1703 47.3172H23.6072C23.711 47.3172 23.7951 47.4013 23.7951 47.5051C23.7951 47.609 23.711 47.693 23.6072 47.693Z" fill="#325CC8" stroke="#325CC8" stroke-width="0.4"/>
</g>
<g id="Group_47">
<path id="Vector_36" d="M23.6072 48.8819H16.1703C16.0665 48.8819 15.9824 48.7978 15.9824 48.694C15.9824 48.5901 16.0665 48.5061 16.1703 48.5061H23.6072C23.711 48.5061 23.7951 48.5901 23.7951 48.694C23.7951 48.7978 23.711 48.8819 23.6072 48.8819Z" fill="#325CC8" stroke="#325CC8" stroke-width="0.4"/>
</g>
<g id="Group_48">
<path id="Vector_37" d="M23.6072 50.0664H16.1703C16.0665 50.0664 15.9824 49.9824 15.9824 49.8785C15.9824 49.7747 16.0665 49.6907 16.1703 49.6907H23.6072C23.711 49.6907 23.7951 49.7747 23.7951 49.8785C23.7951 49.9824 23.711 50.0664 23.6072 50.0664Z" fill="#325CC8" stroke="#325CC8" stroke-width="0.4"/>
</g>
</g>
</g>
<g id="Group_49">
<path id="Vector_38" d="M36.5158 57.7352H35.5424C35.4385 57.7352 35.3545 57.6512 35.3545 57.5473V48.2468C35.3545 48.1429 35.4385 48.0589 35.5424 48.0589H36.5158C37.5705 48.0589 38.4284 48.9187 38.4284 49.9754V55.8187C38.4284 56.8754 37.5705 57.7352 36.5158 57.7352ZM35.7303 57.3594H36.5158C37.3633 57.3594 38.0527 56.6682 38.0527 55.8187V49.9754C38.0527 49.1259 37.3633 48.4347 36.5158 48.4347H35.7303V57.3594Z" fill="#325CC8" stroke="#325CC8" stroke-width="0.4"/>
</g>
</g>
</g>
<g id="Group_50">
<g id="Group_51">
<path id="Vector_39" d="M28.9243 34.1784C28.8349 34.1784 28.7626 34.1061 28.7626 34.0167V33.0241C28.7626 32.7745 28.5596 32.5715 28.3099 32.5715C28.0621 32.5715 27.8605 32.7745 27.8605 33.0241V33.9877C27.8605 34.077 27.7881 34.1493 27.6988 34.1493C27.6094 34.1493 27.5371 34.077 27.5371 33.9877V33.0241C27.5371 32.5962 27.8838 32.2481 28.3099 32.2481C28.7378 32.2481 29.0859 32.5962 29.0859 33.0241V34.0167C29.0859 34.1061 29.0136 34.1784 28.9243 34.1784Z" fill="#325CC8" stroke="#325CC8" stroke-width="0.4"/>
</g>
<g id="Group_52">
<path id="Vector_40" d="M26.7734 34.1514C26.6885 34.1514 26.6173 34.0851 26.6122 33.9992L26.347 29.5112C26.3416 29.4222 26.4097 29.3456 26.4989 29.3404C26.5884 29.3371 26.6645 29.4032 26.6697 29.4923L26.9349 33.9802C26.9403 34.0693 26.8723 34.1459 26.783 34.1511C26.7799 34.1512 26.7766 34.1514 26.7734 34.1514Z" fill="#325CC8" stroke="#325CC8" stroke-width="0.4"/>
</g>
<g id="Group_53">
<path id="Vector_41" d="M22.6364 34.1514C22.6333 34.1514 22.6299 34.1513 22.6268 34.1511C22.5376 34.1459 22.4695 34.0693 22.4749 33.9803L22.74 29.4923C22.7452 29.4033 22.8219 29.3363 22.9108 29.3404C23 29.3456 23.0681 29.4222 23.0627 29.5113L22.7976 33.9992C22.7926 34.0851 22.7214 34.1514 22.6364 34.1514Z" fill="#325CC8" stroke="#325CC8" stroke-width="0.4"/>
</g>
<g id="Group_54">
<path id="Vector_42" d="M30.3113 37.0064H19.1009C18.7034 37.0064 18.3799 36.6829 18.3799 36.2854C18.3799 35.6292 18.6355 35.012 19.0998 34.5479C19.5638 34.0835 20.181 33.8279 20.8373 33.8279H28.575C29.93 33.8279 31.0323 34.9302 31.0323 36.2854C31.0323 36.6829 30.7088 37.0064 30.3113 37.0064ZM20.8373 34.1513C20.2674 34.1513 19.7315 34.3732 19.3284 34.7765C18.9252 35.1797 18.7032 35.7156 18.7032 36.2854C18.7032 36.5047 18.8816 36.6831 19.1009 36.6831H30.3113C30.5306 36.6831 30.709 36.5047 30.709 36.2854C30.709 35.1087 29.7517 34.1513 28.575 34.1513H20.8373Z" fill="#325CC8" stroke="#325CC8" stroke-width="0.4"/>
</g>
<g id="Group_55">
<path id="Vector_43" d="M24.7087 29.9038C24.0801 29.9038 23.4597 29.8203 22.8647 29.6555C19.8575 28.831 17.7568 26.0744 17.7568 22.9519C17.7568 19.1187 20.8755 16 24.7087 16C28.542 16 31.6607 19.1187 31.6607 22.9519C31.6607 26.0772 29.5588 28.8338 26.5492 29.6556C25.9546 29.8203 25.3352 29.9038 24.7087 29.9038ZM24.7087 16.3233C21.0538 16.3233 18.0802 19.2969 18.0802 22.9519C18.0802 25.9291 20.0829 28.5575 22.9506 29.3436C24.0832 29.6575 25.3276 29.6586 26.4635 29.3438C29.3333 28.5602 31.3373 25.9318 31.3373 22.9519C31.3373 19.2969 28.3637 16.3233 24.7087 16.3233ZM24.6281 24.4715C24.6248 24.4715 24.6214 24.4714 24.6181 24.4712C23.8331 24.4239 23.2182 23.7707 23.2182 22.9843V22.9519C23.2256 22.7205 23.2796 22.5089 23.3786 22.318C23.3928 22.2907 23.4136 22.2692 23.4381 22.2544C23.4386 22.2245 23.4471 22.1947 23.4646 22.1679C23.7409 21.7477 24.206 21.4969 24.7087 21.4969C25.2096 21.4969 25.6736 21.7477 25.9499 22.1679C25.9674 22.1947 25.9761 22.2247 25.9764 22.2544C26.0009 22.2694 26.0215 22.2909 26.0358 22.318C26.1347 22.5089 26.1887 22.7205 26.196 22.9467L26.1962 22.9843C26.1962 23.7745 25.5809 24.4276 24.7954 24.4712C24.765 24.4733 24.7332 24.4655 24.7072 24.4509C24.6836 24.464 24.6566 24.4715 24.6281 24.4715ZM23.6838 22.3949C23.6835 22.4192 23.6776 22.444 23.6656 22.4671C23.5889 22.6147 23.5472 22.7795 23.5414 22.9571L23.5415 22.9843C23.5415 23.6 24.0231 24.1114 24.6377 24.1485C24.663 24.1501 24.6865 24.1572 24.7072 24.1689C24.728 24.1572 24.7518 24.1499 24.7774 24.1485C25.3917 24.1142 25.8728 23.6029 25.8728 22.9843V22.9519C25.8671 22.7795 25.8255 22.6147 25.7487 22.4671C25.7367 22.4438 25.7309 22.4192 25.7306 22.3949C25.7107 22.3827 25.6931 22.3662 25.6796 22.3456C25.4634 22.0166 25.1005 21.8202 24.7087 21.8202C24.3151 21.8202 23.9511 22.0166 23.7349 22.3456C23.7212 22.3663 23.7037 22.3829 23.6838 22.3949Z" fill="#325CC8" stroke="#325CC8" stroke-width="0.4"/>
</g>
<g id="Group_56">
<path id="Vector_44" d="M25.817 22.4189C25.7964 22.4189 25.7754 22.415 25.7551 22.4066C25.6726 22.3723 25.6334 22.2778 25.6677 22.1954L26.4986 20.1906C26.7536 19.5754 26.6849 18.8762 26.315 18.3198C25.9544 17.7775 25.3789 17.4649 24.7363 17.462H24.682C24.0409 17.4649 23.4657 17.7778 23.1048 18.3206C22.7347 18.8771 22.6657 19.5762 22.9204 20.1906L23.7515 22.1954C23.7857 22.2778 23.7466 22.3723 23.664 22.4066C23.582 22.441 23.487 22.4017 23.4527 22.3191L22.6216 20.3143C22.3258 19.6002 22.4057 18.7879 22.8356 18.1416C23.2571 17.5075 23.9299 17.142 24.6814 17.1387H24.737C25.4899 17.142 26.163 17.5072 26.5842 18.1408C27.014 18.787 27.0937 19.5996 26.7973 20.3143L25.9664 22.3191C25.9407 22.3813 25.8804 22.4189 25.817 22.4189Z" fill="#325CC8" stroke="#325CC8" stroke-width="0.4"/>
</g>
<g id="Group_57">
<path id="Vector_45" d="M21.5967 27.0374C21.4931 27.0374 21.3893 27.0304 21.2858 27.0162C20.5998 26.9226 20.0075 26.5289 19.6606 25.9358L19.6325 25.8888C19.2588 25.2331 19.2401 24.4677 19.5793 23.7856C19.9247 23.0906 20.5882 22.6159 21.3539 22.5156L23.5041 22.2343C23.5914 22.221 23.6738 22.285 23.6853 22.3735C23.697 22.4621 23.6347 22.5433 23.5461 22.5548L21.3959 22.8361C20.7372 22.9225 20.1663 23.3311 19.8687 23.9296C19.5783 24.5136 19.594 25.1682 19.9116 25.7257L19.9388 25.7712C20.2361 26.2792 20.7427 26.6158 21.3296 26.6959C21.934 26.7785 22.5549 26.5764 22.9889 26.1553C23.0568 26.0873 23.1238 26.0148 23.1874 25.9328L24.5026 24.2137C24.5569 24.1429 24.6582 24.1293 24.7291 24.1835C24.8 24.2377 24.8136 24.3392 24.7593 24.4101L23.4433 26.1304C23.3704 26.2241 23.2949 26.3067 23.2158 26.3857C22.7838 26.8047 22.196 27.0374 21.5967 27.0374Z" fill="#325CC8" stroke="#325CC8" stroke-width="0.4"/>
</g>
<g id="Group_58">
<path id="Vector_46" d="M27.821 27.0368C27.2201 27.0368 26.6313 26.8033 26.2005 26.3841C26.1234 26.3102 26.0472 26.2248 25.9749 26.1307L24.6554 24.4102C24.6011 24.3393 24.6145 24.238 24.6854 24.1835C24.7565 24.1293 24.858 24.1429 24.9121 24.2135L26.2314 25.9338C26.2936 26.0148 26.3588 26.088 26.425 26.1514C26.8599 26.5746 27.4812 26.7772 28.087 26.6956C28.6747 26.6158 29.1818 26.2794 29.4783 25.7726L29.5009 25.73C29.822 25.1685 29.8387 24.5144 29.5492 23.931C29.2519 23.3317 28.6797 22.9225 28.0188 22.8361L25.8686 22.5548C25.78 22.5433 25.7177 22.4621 25.7293 22.3735C25.7409 22.285 25.82 22.221 25.9106 22.2343L28.0608 22.5156C28.8288 22.6159 29.4934 23.0913 29.8387 23.7872C30.1771 24.469 30.157 25.2339 29.7839 25.8861L29.7606 25.93C29.4104 26.529 28.8174 26.9228 28.1304 27.0159C28.0275 27.03 27.9239 27.0368 27.821 27.0368Z" fill="#325CC8" stroke="#325CC8" stroke-width="0.4"/>
</g>
<g id="Group_59">
<path id="Vector_47" d="M24.7201 24.4757C24.6879 24.4757 24.6513 24.4753 24.6188 24.4712C24.5302 24.4598 24.4675 24.3788 24.4789 24.2902C24.4902 24.2018 24.5728 24.142 24.6598 24.1503C24.6791 24.1529 24.701 24.1524 24.7201 24.1524C24.7392 24.1524 24.7583 24.1529 24.7773 24.1503C24.8676 24.1415 24.9468 24.2018 24.9582 24.2902C24.9696 24.3788 24.9069 24.4598 24.8183 24.4712C24.7856 24.4753 24.7528 24.4757 24.7201 24.4757ZM25.9036 22.5551C25.8395 22.5551 25.7789 22.5167 25.7535 22.4536C25.7397 22.419 25.7209 22.3862 25.6977 22.356C25.6434 22.2851 25.6568 22.1837 25.7277 22.1293C25.7988 22.0751 25.9001 22.0887 25.9544 22.1593C25.9955 22.2128 26.0288 22.2714 26.0538 22.3333C26.0869 22.4161 26.0467 22.5102 25.9638 22.5436C25.944 22.5515 25.9237 22.5551 25.9036 22.5551Z" fill="#325CC8" stroke="#325CC8" stroke-width="0.4"/>
</g>
<g id="Group_60">
<path id="Vector_48" d="M25.8192 22.4205C25.7666 22.4205 25.715 22.3949 25.6839 22.3477C25.4677 22.0186 25.1047 21.8222 24.713 21.8222C24.3194 21.8222 23.9554 22.0186 23.7392 22.3477C23.6901 22.4222 23.5902 22.443 23.5152 22.3939C23.4407 22.3448 23.42 22.2446 23.4689 22.1699C23.7452 21.7498 24.2103 21.4989 24.713 21.4989C25.2138 21.4989 25.6779 21.7498 25.9542 22.1699C26.0031 22.2446 25.9824 22.3448 25.9079 22.3939C25.8804 22.4119 25.8496 22.4205 25.8192 22.4205Z" fill="#325CC8" stroke="#325CC8" stroke-width="0.4"/>
</g>
<g id="Group_61">
<path id="Vector_49" d="M24.6316 24.4733C24.6283 24.4733 24.6249 24.4731 24.6216 24.4729C23.8366 24.4256 23.2217 23.7724 23.2217 22.986V22.9536C23.2291 22.7222 23.2831 22.5106 23.3821 22.3197C23.4233 22.2403 23.5207 22.2097 23.6001 22.2507C23.6794 22.2919 23.7102 22.3895 23.6691 22.4688C23.5924 22.6164 23.5507 22.7812 23.5449 22.9588L23.545 22.986C23.545 23.6017 24.0266 24.1131 24.6412 24.1502C24.7303 24.1556 24.7981 24.2322 24.7928 24.3214C24.7876 24.4071 24.7164 24.4733 24.6316 24.4733Z" fill="#325CC8" stroke="#325CC8" stroke-width="0.4"/>
</g>
<g id="Group_62">
<path id="Vector_50" d="M24.7835 24.4731C24.6984 24.4731 24.6271 24.4065 24.6223 24.3204C24.6173 24.2312 24.6855 24.155 24.7747 24.1501C25.389 24.1158 25.8701 23.6044 25.8701 22.9858V22.9535C25.8644 22.7811 25.8227 22.6162 25.746 22.4686C25.7049 22.3894 25.7357 22.2918 25.815 22.2506C25.8942 22.2098 25.9918 22.2403 26.033 22.3196C26.132 22.5104 26.186 22.722 26.1933 22.9483L26.1934 22.9858C26.1934 23.776 25.5782 24.4292 24.7927 24.4728C24.7897 24.4729 24.7865 24.4731 24.7835 24.4731Z" fill="#325CC8" stroke="#325CC8" stroke-width="0.4"/>
</g>
</g>
</g>
</g>
</svg>
