<svg width="83" height="82" viewBox="0 0 83 82" fill="none" xmlns="http://www.w3.org/2000/svg">
<ellipse cx="41.251" cy="41" rx="41.251" ry="41" fill="#01257F" fill-opacity="0.1"/>
<g clip-path="url(#clip0_44_1878)">
<path fill-rule="evenodd" clip-rule="evenodd" d="M37.7574 62H20.2489C19.5818 62 19.0391 61.445 19.0391 60.7627V26.1796C19.0391 25.4973 19.5818 24.9423 20.2489 24.9423H37.7574C38.0105 24.9423 38.2157 25.1522 38.2157 25.411V61.5313C38.2156 61.7903 38.0104 62 37.7574 62ZM20.2489 25.8798C20.09 25.8798 19.9558 26.0171 19.9558 26.1796V60.7627C19.9558 60.9252 20.09 61.0625 20.2489 61.0625H37.299V25.8798L20.2489 25.8798Z" fill="#325CC8"/>
<path fill-rule="evenodd" clip-rule="evenodd" d="M37.7573 38.3296H19.4974C19.2442 38.3296 19.0391 38.1198 19.0391 37.8609C19.0391 37.602 19.2442 37.3922 19.4974 37.3922H37.7573C38.0105 37.3922 38.2157 37.602 38.2157 37.8609C38.2157 38.1198 38.0104 38.3296 37.7573 38.3296Z" fill="#325CC8"/>
<path fill-rule="evenodd" clip-rule="evenodd" d="M61.5055 62H37.7591C37.5059 62 37.3008 61.7901 37.3008 61.5312C37.3008 61.2723 37.5059 61.0625 37.7591 61.0625H61.0472V43.6711H37.7591C37.5059 43.6711 37.3008 43.4613 37.3008 43.2024C37.3008 42.9435 37.5059 42.7336 37.7591 42.7336H61.5055C61.7587 42.7336 61.9639 42.9435 61.9639 43.2024V61.5312C61.9639 61.7902 61.7587 62 61.5055 62Z" fill="#325CC8"/>
<path fill-rule="evenodd" clip-rule="evenodd" d="M23.8545 35.8704H22.1263C21.8731 35.8704 21.668 35.6605 21.668 35.4016V27.8701C21.668 27.6112 21.8731 27.4014 22.1263 27.4014L23.8545 27.4014C24.1076 27.4014 24.3128 27.6112 24.3128 27.8702V35.4017C24.3128 35.6605 24.1075 35.8704 23.8545 35.8704ZM22.5845 34.9329H23.3961V28.3389L22.5845 28.3389V34.9329Z" fill="#325CC8"/>
<path fill-rule="evenodd" clip-rule="evenodd" d="M23.8545 51.9324H22.1263C21.8731 51.9324 21.668 51.7226 21.668 51.4637V40.7813C21.668 40.5223 21.8731 40.3125 22.1263 40.3125H23.8545C24.1076 40.3125 24.3128 40.5223 24.3128 40.7813V51.4637C24.3128 51.7226 24.1075 51.9324 23.8545 51.9324ZM22.5845 50.9949H23.3961V41.25H22.5845V50.9949Z" fill="#325CC8"/>
<path fill-rule="evenodd" clip-rule="evenodd" d="M61.5055 48.7048H37.7591C37.5059 48.7048 37.3008 48.495 37.3008 48.2361C37.3008 47.9772 37.5059 47.7673 37.7591 47.7673H61.5055C61.7587 47.7673 61.9639 47.9772 61.9639 48.2361C61.9639 48.495 61.7587 48.7048 61.5055 48.7048Z" fill="#325CC8"/>
<path fill-rule="evenodd" clip-rule="evenodd" d="M49.6302 62C49.377 62 49.1719 61.7902 49.1719 61.5312V48.2361C49.1719 47.9772 49.377 47.7673 49.6302 47.7673C49.8834 47.7673 50.0885 47.9772 50.0885 48.2361V61.5312C50.0885 61.7903 49.8834 62 49.6302 62Z" fill="#325CC8"/>
<path fill-rule="evenodd" clip-rule="evenodd" d="M46.4779 56.6975C46.2247 56.6975 46.0195 56.4877 46.0195 56.2288V53.001C46.0195 52.7421 46.2247 52.5322 46.4779 52.5322C46.7311 52.5322 46.9362 52.7421 46.9362 53.001V56.2288C46.9362 56.4876 46.731 56.6975 46.4779 56.6975Z" fill="#325CC8"/>
<path fill-rule="evenodd" clip-rule="evenodd" d="M61.5036 55.1603H49.6302C49.377 55.1603 49.1719 54.9504 49.1719 54.6915C49.1719 54.4326 49.377 54.2228 49.6302 54.2228H61.5036C61.7567 54.2228 61.9619 54.4326 61.9619 54.6915C61.9619 54.9504 61.7567 55.1603 61.5036 55.1603Z" fill="#325CC8"/>
<path fill-rule="evenodd" clip-rule="evenodd" d="M57.5645 51.9326H53.5716C53.3184 51.9326 53.1133 51.7228 53.1133 51.4639C53.1133 51.2049 53.3184 50.9951 53.5716 50.9951H57.5645C57.8176 50.9951 58.0228 51.2049 58.0228 51.4639C58.0228 51.7228 57.8176 51.9326 57.5645 51.9326Z" fill="#325CC8"/>
<path fill-rule="evenodd" clip-rule="evenodd" d="M57.5645 58.4663H53.5716C53.3184 58.4663 53.1133 58.2565 53.1133 57.9976C53.1133 57.7386 53.3184 57.5288 53.5716 57.5288H57.5645C57.8176 57.5288 58.0228 57.7386 58.0228 57.9976C58.0228 58.2565 57.8176 58.4663 57.5645 58.4663Z" fill="#325CC8"/>
<path fill-rule="evenodd" clip-rule="evenodd" d="M35.0521 52.9702C34.7989 52.9702 34.5938 52.7604 34.5938 52.5015V39.7055C34.5938 39.4466 34.7989 39.2368 35.0521 39.2368C35.3052 39.2368 35.5104 39.4466 35.5104 39.7055V52.5015C35.5103 52.7604 35.3051 52.9702 35.0521 52.9702Z" fill="#325CC8"/>
<path fill-rule="evenodd" clip-rule="evenodd" d="M35.0521 57.5428C34.7989 57.5428 34.5938 57.3329 34.5938 57.074V55.2295C34.5938 54.9706 34.7989 54.7607 35.0521 54.7607C35.3052 54.7607 35.5104 54.9706 35.5104 55.2295V57.074C35.5103 57.3329 35.3051 57.5428 35.0521 57.5428Z" fill="#325CC8"/>
<path fill-rule="evenodd" clip-rule="evenodd" d="M35.0521 33.5566C34.7989 33.5566 34.5938 33.3468 34.5938 33.0879V28.1751C34.5938 27.9161 34.7989 27.7063 35.0521 27.7063C35.3052 27.7063 35.5104 27.9161 35.5104 28.1751V33.0879C35.5103 33.3467 35.3051 33.5566 35.0521 33.5566Z" fill="#325CC8"/>
<path fill-rule="evenodd" clip-rule="evenodd" d="M35.0521 35.9484C34.7989 35.9484 34.5938 35.7385 34.5938 35.4796V34.7039C34.5938 34.4449 34.7989 34.2351 35.0521 34.2351C35.3052 34.2351 35.5104 34.4449 35.5104 34.7039V35.4796C35.5103 35.7385 35.3051 35.9484 35.0521 35.9484Z" fill="#325CC8"/>
<path fill-rule="evenodd" clip-rule="evenodd" d="M58.5032 31.2277H40.7553C40.6038 31.2277 40.4621 31.1513 40.3768 31.0233C40.2913 30.8955 40.2732 30.7327 40.3283 30.5884L41.5087 27.4977C41.5774 27.3179 41.7468 27.1995 41.9356 27.1995L57.3351 27.1995C57.5245 27.1995 57.6944 27.3186 57.7626 27.4993L58.9306 30.59C58.9851 30.7342 58.9665 30.8965 58.8811 31.0241C58.7957 31.1517 58.6543 31.2277 58.5032 31.2277ZM41.4263 30.2903H57.8348L57.0211 28.137L42.2487 28.137L41.4263 30.2903Z" fill="#325CC8"/>
<path fill-rule="evenodd" clip-rule="evenodd" d="M56.009 28.1371C55.7558 28.1371 55.5506 27.9273 55.5506 27.6683V25.7263H43.7096V27.6683C43.7096 27.9273 43.5045 28.1371 43.2513 28.1371C42.9981 28.1371 42.793 27.9273 42.793 27.6683V25.2576C42.793 24.9986 42.9981 24.7888 43.2513 24.7888H56.009C56.2621 24.7888 56.4673 24.9986 56.4673 25.2576V27.6683C56.4671 27.9272 56.2621 28.1371 56.009 28.1371Z" fill="#325CC8"/>
<path fill-rule="evenodd" clip-rule="evenodd" d="M45.8612 25.7264C45.8418 25.7264 45.8222 25.7252 45.8024 25.7225C45.5513 25.6896 45.3739 25.4548 45.4061 25.198L46.3824 17.4092C46.4116 17.1753 46.6064 17 46.837 17H52.4275C52.6581 17 52.8527 17.1752 52.8821 17.4092L53.8584 25.198C53.8907 25.4548 53.7132 25.6896 53.4622 25.7225C53.211 25.7556 52.9815 25.5741 52.9493 25.3173L52.0243 17.9375H47.2404L46.3155 25.3173C46.2857 25.5537 46.0885 25.7264 45.8612 25.7264Z" fill="#325CC8"/>
<path fill-rule="evenodd" clip-rule="evenodd" d="M41.5141 47.264C40.6813 47.264 40.0039 46.5711 40.0039 45.7194C40.0039 44.8677 40.6814 44.1748 41.5141 44.1748C42.3469 44.1748 43.0244 44.8677 43.0244 45.7194C43.0244 46.5711 42.3471 47.264 41.5141 47.264ZM41.5141 45.1122C41.1869 45.1122 40.9205 45.3845 40.9205 45.7194C40.9205 46.0542 41.1868 46.3265 41.5141 46.3265C41.8415 46.3265 42.1078 46.0542 42.1078 45.7194C42.1078 45.3845 41.8414 45.1122 41.5141 45.1122Z" fill="#325CC8"/>
<path fill-rule="evenodd" clip-rule="evenodd" d="M46.9243 47.264C46.0914 47.264 45.4141 46.5711 45.4141 45.7194C45.4141 44.8677 46.0915 44.1748 46.9243 44.1748C47.757 44.1748 48.4345 44.8677 48.4345 45.7194C48.4345 46.5711 47.7572 47.264 46.9243 47.264ZM46.9243 45.1122C46.597 45.1122 46.3306 45.3845 46.3306 45.7194C46.3306 46.0542 46.5969 46.3265 46.9243 46.3265C47.2517 46.3265 47.518 46.0542 47.518 45.7194C47.518 45.3845 47.2516 45.1122 46.9243 45.1122Z" fill="#325CC8"/>
<path fill-rule="evenodd" clip-rule="evenodd" d="M52.3345 47.264C51.5016 47.264 50.8242 46.5711 50.8242 45.7194C50.8242 44.8677 51.5018 44.1748 52.3345 44.1748C53.1673 44.1748 53.8448 44.8677 53.8448 45.7194C53.8448 46.5711 53.1674 47.264 52.3345 47.264ZM52.3345 45.1122C52.0071 45.1122 51.7407 45.3845 51.7407 45.7194C51.7407 46.0542 52.007 46.3265 52.3345 46.3265C52.6618 46.3265 52.9282 46.0542 52.9282 45.7194C52.9282 45.3845 52.6618 45.1122 52.3345 45.1122Z" fill="#325CC8"/>
<path fill-rule="evenodd" clip-rule="evenodd" d="M57.7446 47.264C56.9117 47.264 56.2344 46.5711 56.2344 45.7194C56.2344 44.8677 56.9119 44.1748 57.7446 44.1748C58.5774 44.1748 59.2548 44.8677 59.2548 45.7194C59.2548 46.5711 58.5775 47.264 57.7446 47.264ZM57.7446 45.1122C57.4173 45.1122 57.1509 45.3845 57.1509 45.7194C57.1509 46.0542 57.4172 46.3265 57.7446 46.3265C58.072 46.3265 58.3383 46.0542 58.3383 45.7194C58.3383 45.3845 58.072 45.1122 57.7446 45.1122Z" fill="#325CC8"/>
<path fill-rule="evenodd" clip-rule="evenodd" d="M43.6927 43.6713C43.4395 43.6713 43.2344 43.4614 43.2344 43.2025V42.0112C43.2344 41.7523 43.4395 41.5425 43.6927 41.5425C43.9459 41.5425 44.1511 41.7523 44.1511 42.0112V43.2025C44.1511 43.4614 43.9458 43.6713 43.6927 43.6713Z" fill="#325CC8"/>
<path fill-rule="evenodd" clip-rule="evenodd" d="M40.9896 43.6713C40.7364 43.6713 40.5312 43.4614 40.5312 43.2025V41.1274C40.5312 40.8685 40.7364 40.6587 40.9896 40.6587H42.1918C42.445 40.6587 42.6502 40.8685 42.6502 41.1274C42.6502 41.3863 42.445 41.5962 42.1918 41.5962H41.4479V43.2025C41.4479 43.4614 41.2427 43.6713 40.9896 43.6713Z" fill="#325CC8"/>
<path fill-rule="evenodd" clip-rule="evenodd" d="M46.3989 43.6713C46.1457 43.6713 45.9405 43.4614 45.9405 43.2025V41.5962H45.1966C44.9434 41.5962 44.7383 41.3863 44.7383 41.1274C44.7383 40.8685 44.9434 40.6587 45.1966 40.6587H46.3989C46.6521 40.6587 46.8572 40.8685 46.8572 41.1274V43.2025C46.8572 43.4614 46.652 43.6713 46.3989 43.6713Z" fill="#325CC8"/>
<path fill-rule="evenodd" clip-rule="evenodd" d="M55.5677 43.6713C55.3145 43.6713 55.1094 43.4614 55.1094 43.2025V42.0112C55.1094 41.7523 55.3145 41.5425 55.5677 41.5425C55.8209 41.5425 56.026 41.7523 56.026 42.0112V43.2025C56.0259 43.4614 55.8209 43.6713 55.5677 43.6713Z" fill="#325CC8"/>
<path fill-rule="evenodd" clip-rule="evenodd" d="M52.8607 43.6713C52.6075 43.6713 52.4023 43.4614 52.4023 43.2025V41.1274C52.4023 40.8685 52.6075 40.6587 52.8607 40.6587H54.063C54.3162 40.6587 54.5214 40.8685 54.5214 41.1274C54.5214 41.3863 54.3162 41.5962 54.063 41.5962H53.319V43.2025C53.319 43.4614 53.114 43.6713 52.8607 43.6713Z" fill="#325CC8"/>
<path fill-rule="evenodd" clip-rule="evenodd" d="M58.2739 43.6713C58.0208 43.6713 57.8156 43.4614 57.8156 43.2025V41.5962H57.0716C56.8184 41.5962 56.6133 41.3863 56.6133 41.1274C56.6133 40.8685 56.8184 40.6587 57.0716 40.6587H58.2739C58.5271 40.6587 58.7323 40.8685 58.7323 41.1274V43.2025C58.7321 43.4614 58.5271 43.6713 58.2739 43.6713Z" fill="#325CC8"/>
</g>
<defs>
<clipPath id="clip0_44_1878">
<rect width="44" height="45" fill="white" transform="translate(18.5 17)"/>
</clipPath>
</defs>
</svg>
