<svg width="82" height="82" viewBox="0 0 82 82" fill="none" xmlns="http://www.w3.org/2000/svg">
<g id="Group 1361">
<circle id="Ellipse 310" cx="41" cy="41" r="41" fill="#01257F" fill-opacity="0.1"/>
<g id="Group 39508">
<g id="Layer_x0020_1">
<g id="_461255584">
<g id="Group">
<g id="Group_2">
<path id="Vector" fill-rule="evenodd" clip-rule="evenodd" d="M47.083 62.0532H30.5052C30.1881 62.0532 29.905 61.7701 29.905 61.4531C29.905 61.136 30.1881 60.8529 30.5052 60.8529H46.4829C46.1658 53.6624 40.2095 47.9553 32.9851 47.9553H28.8293C28.3537 47.9553 27.9913 48.3516 27.9913 48.7932V58.3844C27.9913 58.7014 27.7082 58.9845 27.3912 58.9845C27.0741 58.9845 26.791 58.7014 26.791 58.3844V48.7932C26.791 47.6722 27.7082 46.755 28.8293 46.755H32.9398C41.0475 46.755 47.6379 53.3453 47.6379 61.4531C47.6832 61.7701 47.4001 62.0532 47.083 62.0532Z" fill="#325CC8"/>
</g>
<g id="Group_3">
<path id="Vector_2" fill-rule="evenodd" clip-rule="evenodd" d="M46.6414 58.5431H27.3912C27.0741 58.5431 26.791 58.26 26.791 57.9429C26.791 57.6258 27.0741 57.3427 27.3912 57.3427H46.6074C46.9245 57.3427 47.1962 57.6258 47.1962 57.9429C47.1962 58.26 46.9584 58.5431 46.6414 58.5431Z" fill="#325CC8"/>
</g>
<g id="Group_4">
<path id="Vector_3" fill-rule="evenodd" clip-rule="evenodd" d="M27.3899 65.1332C25.3517 65.1332 23.6758 63.4573 23.6758 61.4191C23.6758 59.3808 25.3517 57.7049 27.3899 57.7049C29.4282 57.7049 31.1041 59.3808 31.1041 61.4191C31.1041 63.4573 29.4282 65.1332 27.3899 65.1332ZM27.3899 58.9392C25.9971 58.9392 24.8761 60.0602 24.8761 61.4531C24.8761 62.8572 25.9971 63.9669 27.3899 63.9669C28.7827 63.9669 29.9038 62.8572 29.9038 61.4531C29.9038 60.0602 28.7827 58.9392 27.3899 58.9392Z" fill="#325CC8"/>
</g>
<g id="Group_5">
<path id="Vector_4" fill-rule="evenodd" clip-rule="evenodd" d="M43.5287 64.8954C41.615 64.8954 40.0977 63.3328 40.0977 61.4531C40.0977 61.136 40.3694 60.8529 40.6978 60.8529C41.0149 60.8529 41.2866 61.136 41.2866 61.4531C41.2866 62.6987 42.2944 63.6951 43.5287 63.6951C44.763 63.6951 45.7595 62.6987 45.7595 61.4531C45.7595 61.136 46.0426 60.8529 46.3596 60.8529C46.688 60.8529 46.9598 61.136 46.9598 61.4531C46.9598 63.3328 45.4424 64.8954 43.5287 64.8954Z" fill="#325CC8"/>
</g>
<g id="Group_6">
<path id="Vector_5" fill-rule="evenodd" clip-rule="evenodd" d="M33.5382 47.9554C33.5042 47.9554 33.5042 47.9554 33.5382 47.9554C33.4249 47.9554 33.3457 47.9554 33.2211 47.9554C33.1418 47.9554 33.0173 47.9554 32.904 47.9554H30.8658C30.5487 47.9554 30.2656 47.6723 30.2656 47.3552V31.7739C30.2656 31.4568 30.5487 31.185 30.8658 31.185C31.1828 31.185 31.4659 31.4568 31.4659 31.7739V46.7211H32.904V31.2643C32.904 30.9359 33.1758 30.6641 33.5042 30.6641C33.8213 30.6641 34.1043 30.9359 34.1043 31.2643V47.3552C34.1043 47.5137 34.0138 47.6723 33.9005 47.7968C33.8213 47.8761 33.6627 47.9554 33.5382 47.9554ZM30.8997 29.8262C30.5827 29.8262 30.2996 29.5431 30.2996 29.226V20.6767C30.2996 20.3596 30.5827 20.0765 30.8997 20.0765C31.2281 20.0765 31.4999 20.3596 31.4999 20.6767V29.226C31.4999 29.5431 31.2281 29.8262 30.8997 29.8262ZM33.5382 29.4185C33.2211 29.4185 32.938 29.1468 32.938 28.8184V20.6767C32.938 20.3596 33.2211 20.0765 33.5382 20.0765C33.8552 20.0765 34.1383 20.3596 34.1383 20.6767V28.8184C34.1383 29.1807 33.8552 29.4185 33.5382 29.4185ZM33.5382 19.1593C33.2211 19.1593 32.938 18.8762 32.938 18.5591V17.925C32.938 17.5174 32.6209 17.2003 32.2246 17.2003C31.817 17.2003 31.4999 17.5174 31.4999 17.925V18.5139C31.4999 18.8422 31.2281 19.114 30.8997 19.114C30.5827 19.114 30.2996 18.8422 30.2996 18.5139V17.925C30.2996 16.8832 31.1489 16 32.2246 16C33.3004 16 34.1383 16.838 34.1383 17.925V18.5139C34.1383 18.8762 33.8552 19.1593 33.5382 19.1593Z" fill="#325CC8"/>
</g>
<g id="Group_7">
<path id="Vector_6" fill-rule="evenodd" clip-rule="evenodd" d="M30.9013 32.374C30.6635 32.374 30.471 32.2607 30.3465 32.0229C30.2219 31.6945 30.3465 31.3775 30.6635 31.2189C31.309 30.9358 32.0224 30.7433 32.8603 30.698C33.0641 30.6641 33.3019 30.6641 33.5397 30.6641C33.8568 30.6641 34.1399 30.9358 34.1399 31.2642C34.1399 31.5813 33.8568 31.8644 33.5397 31.8644C33.3472 31.8644 33.1434 31.8644 32.9849 31.8984C32.3055 31.9776 31.66 32.1022 31.1844 32.34C31.0599 32.374 30.9806 32.374 30.9013 32.374ZM30.9013 29.8261C30.6635 29.8261 30.4257 29.6676 30.3465 29.3845C30.2672 29.0674 30.4257 28.7391 30.7428 28.6258C31.5807 28.388 32.498 28.2295 33.5397 28.2295C33.8568 28.2295 34.1399 28.4673 34.1399 28.8183C34.1399 29.1467 33.9021 29.4185 33.5397 29.4185C32.6225 29.4638 31.7846 29.5883 31.0599 29.7808C31.0259 29.8261 30.9466 29.8261 30.9013 29.8261Z" fill="#325CC8"/>
</g>
<g id="Group_8">
<path id="Vector_7" fill-rule="evenodd" clip-rule="evenodd" d="M20.5973 26.6669C20.484 26.6669 20.3595 26.6669 20.2802 26.6217C19.7253 26.5084 19.2837 26.1121 19.0799 25.5459C18.8874 24.9458 19.0459 24.3116 19.5215 23.7568C20.3595 22.7943 21.6843 21.7185 23.0771 20.8013C25.9533 18.9216 29.1466 17.8798 32.2267 17.8798C35.2954 17.8798 38.5 18.8763 41.4101 20.8013C42.769 21.6732 44.0825 22.7943 44.9658 23.7568C45.7584 24.674 45.5659 25.7044 44.9658 26.2706C44.6487 26.5424 44.2071 26.7122 43.7655 26.6669C43.4484 26.6217 42.9728 26.5084 42.4859 25.9875C41.6932 25.0703 40.4476 24.1531 39.5757 23.5869C37.1411 22.0356 34.6159 21.1976 32.2267 21.1976C29.826 21.1976 27.3122 21.9903 24.9116 23.5529C24.0396 24.1078 22.794 25.0703 22.0014 25.9536C21.6051 26.4291 21.0842 26.6669 20.5973 26.6669ZM32.2267 19.9973C34.8651 19.9973 37.6167 20.8806 40.1759 22.5565C41.4101 23.3491 42.5651 24.3116 43.3238 25.1496C43.6522 25.5119 43.924 25.4666 44.0825 25.3534C44.1618 25.2741 44.2071 25.1496 44.2071 25.0703C44.2071 24.9118 44.1278 24.7532 43.9693 24.5494C43.2106 23.6662 41.965 22.6697 40.6515 21.7978C37.9338 19.9973 34.9783 19.0801 32.1474 19.0801C29.3051 19.0801 26.3497 20.0426 23.632 21.7978C22.3637 22.6357 21.1181 23.6662 20.3255 24.5494C20.2009 24.7872 20.1217 25.025 20.2009 25.1949C20.2462 25.3081 20.3595 25.4327 20.518 25.4666C20.7218 25.5119 20.9256 25.3874 21.1181 25.1949C21.8768 24.3456 23.0771 23.3944 24.2774 22.5565C26.8366 20.8806 29.5882 19.9973 32.2267 19.9973Z" fill="#325CC8"/>
</g>
<g id="Group_9">
<path id="Vector_8" fill-rule="evenodd" clip-rule="evenodd" d="M42.2468 51.4318C42.0882 51.4318 41.9637 51.3865 41.8504 51.2733C41.2503 50.7524 40.6048 50.2768 39.9367 49.8691C39.6876 49.7106 39.5744 49.4388 39.6536 49.1897C39.6876 49.1105 39.6876 48.9972 39.6536 48.9519C39.6083 48.7934 39.1327 48.3518 37.7399 47.7969C36.936 47.4346 36.098 47.1515 35.294 46.8344C34.6146 46.5966 33.9352 46.3588 33.3011 46.0757C33.0633 45.9965 32.9387 45.7587 32.9387 45.5209V42.8825C32.9387 42.6786 33.0633 42.4861 33.2218 42.3616C33.3803 42.2483 33.6181 42.2483 33.7767 42.3276L34.2636 42.5201C35.0562 42.8485 35.8942 43.1655 36.6982 43.4826C37.5361 43.7997 38.3741 44.0828 39.212 44.4451C40.7747 45.1245 42.4845 46.0417 43.0847 47.7177C43.481 48.7594 43.3678 49.9144 42.8016 51.1147C42.7223 51.2733 42.5638 51.3865 42.4053 51.4318C42.326 51.4318 42.292 51.4318 42.2468 51.4318ZM40.8539 49.0765C41.205 49.3143 41.6126 49.5974 41.9637 49.8691C42.1222 49.235 42.1222 48.6688 41.9297 48.1593C41.4541 46.8797 40.05 46.155 38.6911 45.5548C37.8985 45.2378 37.0605 44.9207 36.2565 44.6036C35.5431 44.3658 34.8184 44.0828 34.105 43.7997V45.1245C34.6146 45.317 35.1808 45.5209 35.7017 45.7134C36.5396 46.0417 37.3776 46.3135 38.1702 46.6759C40.367 47.5931 40.6501 48.3178 40.7294 48.5556C40.8539 48.7141 40.8539 48.8727 40.8539 49.0765ZM30.9004 44.8754C30.7872 44.8754 30.7079 44.8414 30.6287 44.7961C27.6732 43.1202 26.0766 40.9688 25.6349 38.2058C25.0348 34.0613 26.1898 31.0153 28.9868 29.3847C29.5076 29.0676 30.1078 28.8185 30.7419 28.6599C31.059 28.5807 31.3874 28.7392 31.5006 29.0676C31.5799 29.3847 31.4213 29.7017 31.1043 29.8263C30.5834 29.9848 30.0625 30.1773 29.6209 30.4604C26.6654 32.1816 26.5069 35.5787 26.8692 38.0925C27.1863 40.2101 28.3073 41.8407 30.3456 43.2448V41.7274C29.904 41.3651 29.5416 41.0027 29.2245 40.6064C28.5904 39.8024 28.2281 38.9305 28.0695 37.934C27.4241 33.7329 29.1453 32.0231 30.7079 31.2984C31.025 31.1851 31.3421 31.2984 31.5006 31.5814C31.6252 31.8985 31.5006 32.2156 31.2288 32.3741C29.5076 33.1781 28.8622 34.9332 29.3038 37.7302C29.4284 38.5342 29.7454 39.2476 30.221 39.8477C30.5494 40.244 30.9004 40.6064 31.3421 40.9235C31.5006 41.048 31.5799 41.2066 31.5799 41.4104V44.2866C31.5799 44.4791 31.4666 44.6829 31.3081 44.7961C31.1043 44.8414 30.9797 44.8754 30.9004 44.8754ZM36.6982 32.3401C36.6189 32.3401 36.5736 32.3401 36.4943 32.2948C35.6224 31.9778 34.5353 31.8192 33.5389 31.8645C33.1765 31.8645 32.9387 31.6154 32.9387 31.2644C32.9387 30.936 33.1765 30.6642 33.5389 30.6642C34.6939 30.6189 35.8942 30.8228 36.936 31.1851C37.253 31.2984 37.4116 31.6154 37.2983 31.9438C37.1738 32.1816 36.936 32.3401 36.6982 32.3401ZM37.3323 29.9848C37.253 29.9848 37.219 29.9848 37.1398 29.9395C36.0187 29.5885 34.7845 29.3847 33.5049 29.4186C33.1765 29.4186 32.9047 29.1808 32.9047 28.8185C32.9047 28.4674 33.1425 28.2296 33.5049 28.2296C34.8977 28.1843 36.2565 28.3882 37.4908 28.8185C37.8192 28.943 37.9777 29.2601 37.8985 29.5885C37.8192 29.8263 37.5701 29.9848 37.3323 29.9848Z" fill="#325CC8"/>
</g>
<g id="Group_10">
<path id="Vector_9" fill-rule="evenodd" clip-rule="evenodd" d="M40.1763 33.4612C40.131 33.4612 40.0518 33.4612 40.0178 33.4159L36.4961 32.4986C36.3376 32.4534 36.213 32.3401 36.1338 32.2156C36.0545 32.1023 36.0205 31.8985 36.0998 31.7739L36.8132 29.1468C36.8925 28.8185 37.2208 28.626 37.5379 28.7052L41.0482 29.6677C41.3653 29.747 41.5691 30.0641 41.4899 30.3811C41.4106 30.6982 41.0935 30.902 40.7765 30.8227L37.855 30.0188L37.4586 31.5022L40.3688 32.2609C40.6972 32.3401 40.8897 32.6572 40.8104 32.9742C40.6972 33.2573 40.4481 33.4612 40.1763 33.4612Z" fill="#325CC8"/>
</g>
<g id="Group_11">
<path id="Vector_10" fill-rule="evenodd" clip-rule="evenodd" d="M41.6108 36.7676C41.5655 36.7676 41.4863 36.7676 41.4523 36.7336C40.7276 36.5298 40.0934 36.0542 39.7311 35.4087C39.3348 34.7407 39.2555 33.9706 39.448 33.2573L40.4898 29.4638C40.6936 28.7391 41.1692 28.105 41.8033 27.7426C42.4827 27.3463 43.2414 27.267 43.9661 27.4709C44.1247 27.5048 44.2379 27.6294 44.3172 27.7426C44.4078 27.8672 44.4417 28.0597 44.4078 28.1843L42.211 36.3373C42.1204 36.6091 41.8826 36.7676 41.6108 36.7676ZM43.0489 28.5466C42.7998 28.5806 42.6073 28.6259 42.4035 28.7391C42.0071 28.9882 41.7693 29.3053 41.6448 29.7469L40.569 33.5743C40.4445 34.0159 40.5237 34.4576 40.7276 34.8199C40.8521 35.0124 41.0107 35.1709 41.1692 35.3295L43.0489 28.5466Z" fill="#325CC8"/>
</g>
<g id="Group_12">
<path id="Vector_11" fill-rule="evenodd" clip-rule="evenodd" d="M56.5048 32.7366C55.9499 32.7366 55.3951 32.5781 54.8289 32.4535L46.4041 30.1775C46.087 30.0982 45.8832 29.7811 45.9625 29.4641C46.0417 29.147 46.3588 28.9432 46.6872 29.0224L55.112 31.2985C56.3462 31.6156 56.9917 31.7741 57.8636 30.9022C58.7808 29.985 58.7808 28.5016 57.8636 27.5843C56.9464 26.6671 55.4743 26.6671 54.5458 27.5843C54.308 27.8221 53.957 27.8221 53.7078 27.5843C53.47 27.3465 53.47 26.9842 53.7078 26.7464C55.112 25.3536 57.3427 25.3536 58.7469 26.7464C60.1397 28.1505 60.1397 30.3813 58.7469 31.7741C57.9882 32.4988 57.2295 32.7366 56.5048 32.7366Z" fill="#325CC8"/>
</g>
<g id="Group_13">
<path id="Vector_12" fill-rule="evenodd" clip-rule="evenodd" d="M59.1079 36.258C59.0626 36.258 58.9833 36.258 58.938 36.2127L46.9236 32.9741C46.6065 32.8948 46.4027 32.5778 46.482 32.2607C46.5613 31.9436 46.8783 31.7398 47.1954 31.8191L59.2211 35.0577C59.5382 35.1369 59.742 35.454 59.6627 35.771C59.6174 36.0541 59.3796 36.258 59.1079 36.258Z" fill="#325CC8"/>
</g>
<g id="Group_14">
<path id="Vector_13" fill-rule="evenodd" clip-rule="evenodd" d="M61.4174 39.485C61.3834 39.485 61.3042 39.485 61.2589 39.4511L49.2332 36.2125C48.9161 36.1332 48.7123 35.8162 48.8029 35.4991C48.8821 35.1707 49.1992 34.9782 49.5163 35.0575L61.542 38.2847C61.859 38.364 62.0629 38.6924 61.9836 39.0094C61.9383 39.3265 61.7005 39.485 61.4174 39.485Z" fill="#325CC8"/>
</g>
<g id="Group_15">
<path id="Vector_14" fill-rule="evenodd" clip-rule="evenodd" d="M54.1933 45.6339C53.5932 45.6339 52.993 45.4754 52.4382 45.1583C51.5889 44.6827 51.034 43.924 50.751 43.0068C50.6717 42.6784 50.8755 42.3614 51.1926 42.2821C51.5096 42.2028 51.838 42.4067 51.9173 42.7237C52.0758 43.3239 52.4721 43.8448 52.993 44.1618C53.5479 44.4789 54.148 44.5582 54.7482 44.3996C55.3484 44.2411 55.8692 43.8448 56.1863 43.2786C56.5034 42.7237 56.5826 42.0783 56.4241 41.4895C56.107 40.3231 55.5069 40.0853 54.2273 39.7683L45.8025 37.4922C45.4855 37.4129 45.2816 37.0959 45.3609 36.7675C45.4402 36.4504 45.7572 36.2579 46.0856 36.3372L54.5104 38.6132C55.7447 38.9303 57.0243 39.2927 57.5451 41.1611C57.7829 42.0783 57.6697 43.0408 57.1828 43.8787C56.7072 44.7167 55.9485 45.2829 55.0313 45.5207C54.8275 45.5999 54.5104 45.6339 54.1933 45.6339Z" fill="#325CC8"/>
</g>
</g>
</g>
</g>
</g>
</g>
</svg>
