<svg width="83" height="82" viewBox="0 0 83 82" fill="none" xmlns="http://www.w3.org/2000/svg">
<g id="Group 1360">
<ellipse id="Ellipse 309" cx="41.251" cy="41" rx="41.251" ry="41" fill="#01257F" fill-opacity="0.1"/>
<g id="Group 39528">
<rect id="Rectangle 740" x="17" y="50" width="12" height="12" rx="1" stroke="#325CC8" stroke-width="1.5"/>
<rect id="Rectangle 742" x="39" y="35" width="9" height="9" rx="1" stroke="#325CC8" stroke-width="1.5"/>
<rect id="Rectangle 744" x="17" y="43.7598" width="15.3927" height="8.24204" rx="1" transform="rotate(-44.3466 17 43.7598)" stroke="#325CC8" stroke-width="1.5"/>
<rect id="Rectangle 743" x="48" y="32" width="12" height="12" rx="1" stroke="#325CC8" stroke-width="1.5"/>
<circle id="Ellipse 349" cx="43" cy="30" r="5" stroke="#325CC8" stroke-width="1.5"/>
<path id="Subtract" d="M40.2194 61.1312L39.49 60.9567L40.2194 61.1312ZM55.7806 61.1312L55.0511 61.3058L55.7806 61.1312ZM30 44.75H65V43.25H30V44.75ZM29.75 61V45H28.25V61H29.75ZM39.1788 61.25H30V62.75H39.1788V61.25ZM40.9489 61.3058C41.7116 58.1186 44.5801 55.75 48 55.75V54.25C43.8704 54.25 40.4106 57.1101 39.49 60.9567L40.9489 61.3058ZM48 55.75C51.4199 55.75 54.2884 58.1186 55.0511 61.3058L56.51 60.9567C55.5894 57.1101 52.1296 54.25 48 54.25V55.75ZM65 61.25H56.8212V62.75H65V61.25ZM65.25 45V61H66.75V45H65.25ZM65 62.75C65.9665 62.75 66.75 61.9665 66.75 61H65.25C65.25 61.1381 65.1381 61.25 65 61.25V62.75ZM39.1788 62.75C40.0788 62.75 40.7626 62.0842 40.9489 61.3058L39.49 60.9567C39.4415 61.1595 39.2877 61.25 39.1788 61.25V62.75ZM28.25 61C28.25 61.9665 29.0335 62.75 30 62.75V61.25C29.8619 61.25 29.75 61.1381 29.75 61H28.25ZM65 44.75C65.1381 44.75 65.25 44.8619 65.25 45H66.75C66.75 44.0335 65.9665 43.25 65 43.25V44.75ZM55.0511 61.3058C55.2374 62.0842 55.9212 62.75 56.8212 62.75V61.25C56.7123 61.25 56.5585 61.1595 56.51 60.9567L55.0511 61.3058ZM30 43.25C29.0335 43.25 28.25 44.0335 28.25 45H29.75C29.75 44.8619 29.8619 44.75 30 44.75V43.25Z" fill="#325CC8"/>
<path id="Polygon 1" d="M53.1037 22.8111C53.4709 22.0691 54.5291 22.0691 54.8963 22.8111L58.4818 30.0565C58.8107 30.7211 58.3271 31.5 57.5855 31.5H50.4145C49.6729 31.5 49.1893 30.7211 49.5182 30.0565L53.1037 22.8111Z" stroke="#325CC8" stroke-width="1.5"/>
</g>
</g>
</svg>
