<svg width="68" height="91" viewBox="0 0 68 91" fill="none" xmlns="http://www.w3.org/2000/svg">
<path opacity="0.44" d="M29.3662 90.0342C22.734 90.0342 17.3132 88.7038 13.1035 86.043C8.93359 83.3822 5.85579 79.6888 3.87012 74.9629C1.92415 70.1973 0.951172 64.6969 0.951172 58.4619C0.951172 54.292 1.30859 50.0228 2.02344 45.6543C2.77799 41.2461 3.85026 36.957 5.24023 32.7871C6.66992 28.6172 8.41732 24.765 10.4824 21.2305C12.5872 17.696 14.9701 14.6976 17.6309 12.2354C21.1654 8.97884 24.68 6.5166 28.1748 4.84863C31.7093 3.14095 35.5417 1.98926 39.6719 1.39355C43.8418 0.797852 48.6273 0.5 54.0283 0.5C56.292 0.5 58.5954 0.678711 60.9385 1.03613C63.2816 1.35384 65.6048 1.79069 67.9082 2.34668L64.1553 20.3965C62.6462 19.9596 60.8591 19.6022 58.7939 19.3242C56.7288 19.0462 54.8822 18.9072 53.2539 18.9072C47.0189 18.9072 42.0348 19.6816 38.3018 21.2305C34.5687 22.7793 31.61 25.182 29.4258 28.4385C27.2415 31.6553 25.3551 35.7656 23.7666 40.7695H24.2432C25.3154 39.0618 26.626 37.4336 28.1748 35.8848C29.7633 34.3359 31.7093 33.085 34.0127 32.1318C36.3558 31.139 39.1953 30.6426 42.5312 30.6426C48.528 30.6426 53.2738 32.5885 56.7686 36.4805C60.3031 40.3724 62.0703 46.4089 62.0703 54.5898C62.0703 59.6335 61.3356 64.3197 59.8662 68.6484C58.4365 72.9375 56.3118 76.6904 53.4922 79.9072C50.7122 83.0843 47.2969 85.5664 43.2461 87.3535C39.1953 89.1406 34.5687 90.0342 29.3662 90.0342ZM29.6045 71.7461C31.1136 71.7461 32.4242 71.3092 33.5361 70.4355C34.6878 69.5619 35.6409 68.3903 36.3955 66.9209C37.1501 65.4515 37.7061 63.8034 38.0635 61.9766C38.4606 60.1497 38.6592 58.2832 38.6592 56.377C38.6592 53.9941 38.2025 52.1276 37.2891 50.7773C36.4154 49.3874 35.0452 48.6924 33.1787 48.6924C31.9079 48.6924 30.7363 49.0299 29.6641 49.7051C28.5918 50.3405 27.6387 51.2738 26.8047 52.5049C25.9707 53.6963 25.2757 55.1061 24.7197 56.7344C24.5212 57.4095 24.3424 58.1442 24.1836 58.9385C24.0645 59.693 23.9652 60.4873 23.8857 61.3213C23.8063 62.1156 23.7666 62.9495 23.7666 63.8232C23.7666 65.1338 23.9056 66.2855 24.1836 67.2783C24.4616 68.2712 24.8587 69.1051 25.375 69.7803C25.8913 70.4157 26.5068 70.9121 27.2217 71.2695C27.9365 71.5872 28.7308 71.7461 29.6045 71.7461Z" fill="white"/>
</svg>
