<svg width="51" height="51" viewBox="0 0 51 51" fill="none" xmlns="http://www.w3.org/2000/svg">
<g filter="url(#filter0_d_83_4010)">
<rect x="2" y="1" width="47" height="47" rx="8" fill="white"/>
<g clip-path="url(#clip0_83_4010)">
<path d="M19.4045 39.0002H19.3485C19.3457 38.8969 19.3373 38.7936 19.3401 38.6904C19.3799 37.1435 19.4185 35.5967 19.4666 34.0504C19.4728 33.849 19.4235 33.7304 19.2416 33.6254C17.9678 32.8906 16.8563 31.9515 15.9278 30.8024C13.4149 27.6917 12.5144 24.1413 13.2464 20.1987C13.7848 17.3003 15.2103 14.8864 17.4395 12.9934C20.3218 10.5466 23.658 9.61433 27.3675 10.1437C29.8004 10.491 31.949 11.5289 33.7802 13.1943C36.0117 15.2234 37.3767 17.7434 37.8356 20.7559C37.8989 21.173 37.9459 21.5924 38.0002 22.0106V23.3134C37.9101 23.6709 37.9246 24.0408 37.8726 24.4034C37.5435 26.6896 36.7045 28.7602 35.2617 30.5505C32.742 33.6765 29.4808 35.2784 25.492 35.326C25.3068 35.3283 25.1551 35.3635 24.9984 35.4616C23.2058 36.5874 21.4098 37.7076 19.616 38.8317C19.5411 38.8788 19.4403 38.8997 19.4045 39.0002ZM22.4329 18.6071C23.1644 18.1713 23.9082 17.9403 24.7236 17.9931C25.4148 18.0379 25.9174 18.409 26.0293 18.9782C26.111 19.3935 26.0041 19.7834 25.8043 20.1465C25.5637 20.5846 25.2587 20.9778 24.9369 21.3563C24.0156 22.4401 23.4722 23.6595 23.5892 25.1264C23.6037 25.3125 23.6446 25.3902 23.8444 25.3874C24.6162 25.3772 25.3885 25.3789 26.1603 25.3868C26.3394 25.3885 26.4049 25.338 26.3976 25.1479C26.3791 24.6843 26.4379 24.2292 26.5873 23.7866C26.8157 23.1091 27.2522 22.5729 27.7162 22.0554C28.1488 21.5725 28.5557 21.0714 28.8434 20.4824C29.7411 18.6445 29.2413 16.3095 26.7938 15.6258C25.9101 15.3789 25.0096 15.384 24.1113 15.5066C23.3356 15.6121 22.5879 15.8295 21.8917 16.2068C21.7932 16.2601 21.7159 16.3044 21.7585 16.44C21.9835 17.1561 22.2045 17.8728 22.4329 18.6076V18.6071ZM23.0748 28.3369C23.072 29.4593 23.8455 30.2719 24.9245 30.2787C26.0109 30.2855 26.8353 29.4462 26.8246 28.3437C26.814 27.2088 26.0327 26.4133 24.9307 26.4144C23.8382 26.4156 23.0782 27.2032 23.0748 28.3369Z" fill="#000C2A"/>
</g>
</g>
<defs>
<filter id="filter0_d_83_4010" x="0" y="0" width="51" height="51" filterUnits="userSpaceOnUse" color-interpolation-filters="sRGB">
<feFlood flood-opacity="0" result="BackgroundImageFix"/>
<feColorMatrix in="SourceAlpha" type="matrix" values="0 0 0 0 0 0 0 0 0 0 0 0 0 0 0 0 0 0 127 0" result="hardAlpha"/>
<feOffset dy="1"/>
<feGaussianBlur stdDeviation="1"/>
<feColorMatrix type="matrix" values="0 0 0 0 0.0627451 0 0 0 0 0.0941176 0 0 0 0 0.156863 0 0 0 0.05 0"/>
<feBlend mode="normal" in2="BackgroundImageFix" result="effect1_dropShadow_83_4010"/>
<feBlend mode="normal" in="SourceGraphic" in2="effect1_dropShadow_83_4010" result="shape"/>
</filter>
<clipPath id="clip0_83_4010">
<rect width="25" height="29" fill="white" transform="translate(13 10)"/>
</clipPath>
</defs>
</svg>
