<svg width="52" height="51" viewBox="0 0 52 51" fill="none" xmlns="http://www.w3.org/2000/svg">
<g filter="url(#filter0_d_83_4022)">
<rect x="2.33301" y="1" width="47" height="47" rx="8" fill="white"/>
<path d="M15.982 8C16.6054 8.19314 16.8896 8.67373 17.1163 9.24733C20.4733 17.7422 23.8413 26.2332 27.2067 34.7249C27.3174 35.0044 27.5174 35.0886 27.8068 34.9775C31.9906 33.3729 36.1744 31.7677 40.3589 30.1639C41.0488 29.8997 41.5391 29.9953 41.966 30.4713C42.4363 30.9958 42.3278 31.8963 41.7387 32.2832C41.5785 32.3879 41.4028 32.4751 41.2238 32.5442C36.6311 34.3096 32.0352 36.0685 27.4444 37.8397C26.9044 38.0477 26.3941 38.1304 25.8857 37.7757C25.3309 40.408 22.8872 41.4983 20.8486 40.7878C18.9172 40.1147 17.7351 37.9508 18.5723 35.7823C19.2906 33.9213 21.72 32.5804 24.1436 33.964C24.1649 33.8354 24.0906 33.7372 24.0493 33.6326C21.056 26.0776 18.0588 18.5238 15.0732 10.9656C14.944 10.6381 14.7909 10.5987 14.4776 10.6736C13.3569 10.9404 12.4351 11.492 11.7737 12.4506C11.4843 12.8698 11.0806 13.1075 10.5722 13.0578C10.0115 13.0029 9.62587 12.6883 9.46762 12.1276C9.46051 12.1011 9.42757 12.0831 9.40625 12.0617C9.40625 11.8899 9.40625 11.7181 9.40625 11.5463C9.518 11.3409 9.61231 11.1232 9.74473 10.9326C10.6084 9.69368 11.7853 8.88237 13.2031 8.39468C13.7929 8.19185 14.4117 8.13436 15.015 8H15.982ZM23.3536 37.1899C23.3484 36.4909 22.8026 35.9419 22.1082 35.9374C21.4106 35.9328 20.8331 36.5116 20.8396 37.2086C20.846 37.9165 21.4112 38.4617 22.127 38.4514C22.8272 38.4411 23.3588 37.8946 23.3536 37.1899Z" fill="#000C2A"/>
<path d="M35.982 16.7537C35.9827 17.3176 35.7269 17.6581 35.1985 17.8615C33.9983 18.3234 32.7969 18.7814 31.5954 19.24C29.6233 19.9938 27.6519 20.7476 25.6791 21.5008C24.8924 21.8012 24.3763 21.5725 24.0752 20.7857C23.2949 18.7439 22.5159 16.7008 21.7388 14.6576C21.4449 13.8857 21.6736 13.3696 22.4416 13.075C25.6139 11.86 28.7862 10.6456 31.9597 9.43382C32.6864 9.15606 33.2284 9.397 33.5042 10.1192C34.2968 12.1907 35.0855 14.2642 35.8755 16.3371C35.9368 16.4986 35.9853 16.6626 35.9808 16.7531L35.982 16.7537ZM30.5813 13.5072C30.5916 12.8851 30.0109 12.4582 29.4005 12.6739C28.4509 13.0098 27.5085 13.3689 26.5705 13.7358C26.09 13.9238 25.8852 14.4147 26.0602 14.8714C26.2288 15.3113 26.7004 15.5419 27.1706 15.374C28.1292 15.031 29.0833 14.6731 30.0328 14.3062C30.3842 14.1706 30.5696 13.8915 30.5813 13.5072Z" fill="#000C2A"/>
<path d="M39.9435 27.2071C39.9364 27.6825 39.658 28.0391 39.1393 28.2381C37.7686 28.7639 36.3966 29.2864 35.0252 29.8103C33.2237 30.4989 31.4221 31.1881 29.6193 31.8754C28.8474 32.17 28.3287 31.9413 28.0361 31.1758C27.2512 29.1243 26.467 27.0721 25.6848 25.0193C25.3941 24.2558 25.6286 23.7371 26.4037 23.4406C29.5663 22.2301 32.7289 21.0209 35.8927 19.8136C36.6453 19.5268 37.1679 19.7587 37.4547 20.5067C38.2447 22.5679 39.0301 24.6311 39.8169 26.6936C39.8821 26.8641 39.9351 27.0385 39.9429 27.2078L39.9435 27.2071ZM29.9603 24.7971C29.9468 25.5012 30.4952 25.9591 31.0604 25.7654C32.0513 25.4249 33.0305 25.0496 34.0046 24.6627C34.4678 24.4786 34.6493 23.9903 34.4775 23.5426C34.3147 23.1195 33.849 22.8715 33.3968 23.0317C32.4091 23.3812 31.4292 23.7558 30.4545 24.1395C30.1296 24.2674 29.9726 24.549 29.9603 24.7964V24.7971Z" fill="#000C2A"/>
</g>
<defs>
<filter id="filter0_d_83_4022" x="0.333008" y="0" width="51" height="51" filterUnits="userSpaceOnUse" color-interpolation-filters="sRGB">
<feFlood flood-opacity="0" result="BackgroundImageFix"/>
<feColorMatrix in="SourceAlpha" type="matrix" values="0 0 0 0 0 0 0 0 0 0 0 0 0 0 0 0 0 0 127 0" result="hardAlpha"/>
<feOffset dy="1"/>
<feGaussianBlur stdDeviation="1"/>
<feColorMatrix type="matrix" values="0 0 0 0 0.0627451 0 0 0 0 0.0941176 0 0 0 0 0.156863 0 0 0 0.05 0"/>
<feBlend mode="normal" in2="BackgroundImageFix" result="effect1_dropShadow_83_4022"/>
<feBlend mode="normal" in="SourceGraphic" in2="effect1_dropShadow_83_4022" result="shape"/>
</filter>
</defs>
</svg>
