<svg width="52" height="51" viewBox="0 0 52 51" fill="none" xmlns="http://www.w3.org/2000/svg">
<g filter="url(#filter0_d_83_4034)">
<rect x="2.66699" y="1" width="47" height="47" rx="8" fill="white"/>
<path d="M26.168 25.7917C24.4551 25.7917 22.8124 25.1113 21.6012 23.9001C20.3901 22.689 19.7096 21.0463 19.7096 19.3334H22.293C22.293 20.3611 22.7012 21.3468 23.4279 22.0735C24.1546 22.8002 25.1403 23.2084 26.168 23.2084C27.1957 23.2084 28.1813 22.8002 28.908 22.0735C29.6347 21.3468 30.043 20.3611 30.043 19.3334H32.6263C32.6263 21.0463 31.9459 22.689 30.7347 23.9001C29.5235 25.1113 27.8808 25.7917 26.168 25.7917ZM26.168 12.8751C27.1957 12.8751 28.1813 13.2833 28.908 14.01C29.6347 14.7367 30.043 15.7224 30.043 16.7501H22.293C22.293 15.7224 22.7012 14.7367 23.4279 14.01C24.1546 13.2833 25.1403 12.8751 26.168 12.8751ZM35.2096 16.7501H32.6263C32.6263 15.902 32.4593 15.0621 32.1347 14.2786C31.8101 13.495 31.3344 12.7831 30.7347 12.1834C30.135 11.5836 29.423 11.1079 28.6395 10.7834C27.8559 10.4588 27.0161 10.2917 26.168 10.2917C24.4551 10.2917 22.8124 10.9722 21.6012 12.1834C20.3901 13.3945 19.7096 15.0372 19.7096 16.7501H17.1263C15.6926 16.7501 14.543 17.8997 14.543 19.3334V34.8334C14.543 35.5186 14.8151 36.1756 15.2996 36.6601C15.7841 37.1446 16.4412 37.4167 17.1263 37.4167H35.2096C35.8948 37.4167 36.5519 37.1446 37.0363 36.6601C37.5208 36.1756 37.793 35.5186 37.793 34.8334V19.3334C37.793 18.6483 37.5208 17.9912 37.0363 17.5067C36.5519 17.0223 35.8948 16.7501 35.2096 16.7501Z" fill="#000C2A"/>
</g>
<defs>
<filter id="filter0_d_83_4034" x="0.666992" y="0" width="51.001" height="51" filterUnits="userSpaceOnUse" color-interpolation-filters="sRGB">
<feFlood flood-opacity="0" result="BackgroundImageFix"/>
<feColorMatrix in="SourceAlpha" type="matrix" values="0 0 0 0 0 0 0 0 0 0 0 0 0 0 0 0 0 0 127 0" result="hardAlpha"/>
<feOffset dy="1"/>
<feGaussianBlur stdDeviation="1"/>
<feColorMatrix type="matrix" values="0 0 0 0 0.0627451 0 0 0 0 0.0941176 0 0 0 0 0.156863 0 0 0 0.05 0"/>
<feBlend mode="normal" in2="BackgroundImageFix" result="effect1_dropShadow_83_4034"/>
<feBlend mode="normal" in="SourceGraphic" in2="effect1_dropShadow_83_4034" result="shape"/>
</filter>
</defs>
</svg>
