<svg width="51" height="51" viewBox="0 0 51 51" fill="none" xmlns="http://www.w3.org/2000/svg">
<g filter="url(#filter0_d_83_4046)">
<rect x="2" y="1" width="47" height="47" rx="8" fill="white"/>
<path d="M26.4425 24.6747C28.5204 25.6725 30.406 25.6218 32.0915 24.1575C34.0773 22.4331 34.2075 19.4507 32.4442 17.4931C30.6936 15.5482 27.7308 15.4118 25.7737 17.2282C25.4067 17.5677 25.0858 17.6581 24.5965 17.6423C23.0095 17.5867 21.4209 17.6042 19.8323 17.6216C19.351 17.6264 19.1333 17.4757 19.4415 17.0505C20.231 15.967 19.8037 15.0358 19.2143 14.0491C18.598 13.0164 18.6393 12.9846 19.505 12.1327C19.9927 11.6521 20.4455 10.908 21.011 10.8033C21.5242 10.7082 22.1818 11.2935 22.7506 11.6235C23.243 11.9106 23.8751 12.2189 24.5 11.8447C25.8165 11.0564 26.3142 10.9244 26.7507 9.18364C27.0874 7.83046 27.1462 7.84473 28.4806 7.84473C30.4283 7.84473 30.4712 7.83363 30.9779 9.6897C31.1749 10.4115 31.5959 10.6542 32.2075 10.9969C33.5753 11.7647 34.7397 11.5426 35.8883 10.6828C36.5714 10.1704 37.0639 10.2909 37.577 10.9429C38.0297 11.5204 38.8892 11.963 38.9988 12.5674C39.1004 13.1226 38.4745 13.8365 38.1044 14.4409C37.7549 15.0104 37.8693 15.4657 38.0488 16.0971C38.4761 17.6074 39.4881 18.2419 40.8876 18.4465C41.8122 18.5814 42.0298 19.0446 41.998 19.9378C41.9234 22.0413 41.9853 22.0857 39.9932 22.6441C39.145 22.8817 38.4665 23.3999 38.2298 24.1575C37.6581 25.9872 37.8041 26.8338 38.7319 28.0775C39.102 28.574 39.0369 28.9453 38.554 29.3387C37.9233 29.8543 37.4912 30.8156 36.7588 30.9378C36.0265 31.0599 35.291 30.3349 34.5904 29.9272C34.0264 29.5988 33.5515 29.5513 32.9907 29.8939C32.5379 30.1715 32.0884 30.3651 31.6594 29.7321C31.3941 29.3403 30.8842 29.2324 30.3774 29.2403C29.24 29.2578 28.101 29.2403 26.9619 29.2498C26.6379 29.253 26.4202 29.2403 26.4298 28.7993C26.4584 27.454 26.4409 26.1072 26.4409 24.6747H26.4425Z" fill="#000C2A"/>
<path d="M14.8373 24.1035C14.8373 22.6503 14.8516 21.1956 14.8309 19.7425C14.823 19.173 15.0263 18.9223 15.6173 18.9366C16.6753 18.962 17.7349 18.9572 18.7929 18.9366C19.1646 18.9303 19.2822 19.0886 19.2965 19.4268C19.2695 20.0074 19.2679 20.1702 19.2822 20.8447C19.2965 21.5192 19.2822 21.8447 19.999 21.8447C20.7158 21.8447 20.6516 21.571 20.6516 20.8447C20.6516 20.571 20.6516 19.5582 20.6516 19.4265C20.6516 18.8447 20.999 18.943 21.499 18.943C22.1075 18.943 23.7732 18.9556 24.3816 18.9398C24.8693 18.9271 25.1505 19.1349 25.1505 19.6235C25.1568 22.5837 25.1553 25.5439 25.1505 28.5041C25.1505 29.0403 24.8312 29.2434 24.3292 29.2434C21.4443 29.2418 18.5594 29.2386 15.6745 29.2465C15.0756 29.2465 14.8198 28.9991 14.8294 28.3851C14.8532 26.959 14.8373 25.5312 14.8373 24.1035Z" fill="#000C2A"/>
<path d="M20.828 36.0125C20.828 34.5594 20.8423 33.1046 20.8217 31.6515C20.8137 31.082 21.0171 30.8314 21.608 30.8456C22.666 30.871 23.7256 30.8663 24.7836 30.8456C25.1554 30.8393 25.2729 30.9976 25.2872 31.3358C25.2602 31.9164 25.2586 32.0793 25.2729 32.7537C25.2872 33.4282 25.2729 33.7537 25.9897 33.7537C26.7065 33.7537 26.6423 33.4801 26.6423 32.7537C26.6423 32.4801 26.6423 31.4672 26.6423 31.3356C26.6423 30.7537 26.9897 30.852 27.4897 30.852C28.0982 30.852 29.7639 30.8647 30.3723 30.8488C30.86 30.8361 31.1412 31.0439 31.1412 31.5325C31.1475 34.4927 31.146 37.4529 31.1412 40.4131C31.1412 40.9493 30.8219 41.1524 30.3199 41.1524C27.435 41.1508 24.5501 41.1476 21.6652 41.1556C21.0663 41.1556 20.8105 40.9081 20.8201 40.2941C20.8439 38.868 20.828 37.4402 20.828 36.0125Z" fill="#000C2A"/>
<path d="M9.00722 36.0122C9.00722 34.559 9.02152 33.1043 9.00087 31.6512C8.99293 31.0817 9.19627 30.831 9.78723 30.8453C10.8452 30.8707 11.9048 30.8659 12.9628 30.8453C13.3346 30.839 13.4521 30.9973 13.4664 31.3355C13.4394 31.9161 13.4378 32.0789 13.4521 32.7534C13.4664 33.4279 13.4521 33.7534 14.1689 33.7534C14.8858 33.7534 14.8215 33.4797 14.8215 32.7534C14.8215 32.4797 14.8215 31.4669 14.8215 31.3352C14.8215 30.7534 15.1689 30.8516 15.6689 30.8516C16.2774 30.8516 17.9431 30.8643 18.5515 30.8485C19.0392 30.8358 19.3204 31.0436 19.3204 31.5322C19.3268 34.4924 19.3252 37.4526 19.3204 40.4128C19.3204 40.949 19.0011 41.1521 18.4991 41.1521C15.6142 41.1505 12.7293 41.1473 9.84442 41.1552C9.24551 41.1552 8.98975 40.9077 8.99928 40.2938C9.02311 38.8677 9.00722 37.4399 9.00722 36.0122Z" fill="#000C2A"/>
</g>
<defs>
<filter id="filter0_d_83_4046" x="0" y="0" width="51" height="51" filterUnits="userSpaceOnUse" color-interpolation-filters="sRGB">
<feFlood flood-opacity="0" result="BackgroundImageFix"/>
<feColorMatrix in="SourceAlpha" type="matrix" values="0 0 0 0 0 0 0 0 0 0 0 0 0 0 0 0 0 0 127 0" result="hardAlpha"/>
<feOffset dy="1"/>
<feGaussianBlur stdDeviation="1"/>
<feColorMatrix type="matrix" values="0 0 0 0 0.0627451 0 0 0 0 0.0941176 0 0 0 0 0.156863 0 0 0 0.05 0"/>
<feBlend mode="normal" in2="BackgroundImageFix" result="effect1_dropShadow_83_4046"/>
<feBlend mode="normal" in="SourceGraphic" in2="effect1_dropShadow_83_4046" result="shape"/>
</filter>
</defs>
</svg>
