<svg width="52" height="51" viewBox="0 0 52 51" fill="none" xmlns="http://www.w3.org/2000/svg">
<g filter="url(#filter0_d_83_4058)">
<rect x="2.33301" y="1" width="47" height="47" rx="8" fill="white"/>
<path d="M22.6477 12.6929C22.9962 12.6929 23.3447 12.6929 23.6933 12.6929C24.0184 12.7496 24.3479 12.7882 24.6678 12.8664C25.7876 13.1401 26.877 12.895 27.9696 12.6929C28.3181 12.6929 28.6666 12.6929 29.0151 12.6929C29.027 12.7029 29.038 12.72 29.0508 12.722C29.9297 12.8483 30.6524 13.2883 31.2261 13.9314C32.0584 14.8639 33.0272 15.5771 34.1689 16.081C34.7212 16.3247 35.1987 16.6984 35.5834 17.1775C36.1195 17.8459 36.3204 18.6406 36.4209 19.4635C36.5333 20.3831 36.7327 21.2675 37.2265 22.0689C37.3874 22.3301 37.5078 22.6171 37.6354 22.8974C38.1182 23.9606 38.1206 25.027 37.6331 26.0882C37.455 26.4758 37.2626 26.8577 37.0598 27.2329C36.7827 27.7468 36.5966 28.2865 36.5194 28.8662C36.4652 29.2738 36.4009 29.68 36.3276 30.0843C36.1167 31.2499 35.5192 32.15 34.4784 32.734C34.1066 32.9428 33.73 33.1449 33.3453 33.3275C32.7944 33.5883 32.3102 33.9325 31.8955 34.3801C31.6427 34.6533 31.3752 34.9127 31.1119 35.1758C30.1173 36.1708 28.918 36.4797 27.5602 36.2094C26.4799 35.9944 25.4087 35.9205 24.3184 36.176C23.6799 36.3252 23.0191 36.36 22.364 36.2141C21.5165 36.0258 20.8471 35.5367 20.2891 34.9079C19.5497 34.0755 18.6899 33.4319 17.6668 32.9966C17.4282 32.8956 17.2068 32.7502 16.9874 32.61C16.2304 32.128 15.7143 31.463 15.4629 30.5934C15.3305 30.1357 15.2601 29.6676 15.1901 29.199C15.1082 28.6517 15.0382 28.1029 14.783 27.5985C14.345 26.7337 13.8398 25.8961 13.668 24.9202V24.064C13.8065 23.3775 14.0465 22.7249 14.4069 22.128C14.9092 21.2961 15.1358 20.3898 15.2458 19.4363C15.3258 18.7427 15.4938 18.0671 15.8747 17.465C16.2999 16.7919 16.915 16.3328 17.6234 16.0157C18.6661 15.549 19.5769 14.9202 20.3148 14.0439C20.4315 13.9057 20.5724 13.7865 20.709 13.6659C21.1037 13.3179 21.5351 13.0275 22.0388 12.8616C22.2388 12.7954 22.4454 12.7486 22.6492 12.6933L22.6477 12.6929Z" fill="#000C2A"/>
<path d="M24.758 28.6892C24.4499 28.6996 24.1934 28.5819 23.9795 28.3679C22.9733 27.3629 21.9656 26.3601 20.9643 25.3503C20.5157 24.8976 20.5162 24.2249 20.948 23.793C21.3819 23.3589 22.0461 23.3567 22.5056 23.8071C23.2036 24.4924 23.8951 25.1841 24.5789 25.8841C24.721 26.0295 24.7934 26.0306 24.9377 25.8851C26.4175 24.3932 27.9022 22.9068 29.3918 21.4247C30.0218 20.7977 31.017 21.0428 31.2479 21.8789C31.3666 22.3098 31.2321 22.678 30.9185 22.9901C30.0011 23.9046 29.0864 24.8214 28.1712 25.7375C27.3131 26.596 26.4545 27.4533 25.5976 28.3128C25.3646 28.5465 25.0989 28.7007 24.758 28.6892Z" fill="white"/>
</g>
<defs>
<filter id="filter0_d_83_4058" x="0.333008" y="0" width="51" height="51" filterUnits="userSpaceOnUse" color-interpolation-filters="sRGB">
<feFlood flood-opacity="0" result="BackgroundImageFix"/>
<feColorMatrix in="SourceAlpha" type="matrix" values="0 0 0 0 0 0 0 0 0 0 0 0 0 0 0 0 0 0 127 0" result="hardAlpha"/>
<feOffset dy="1"/>
<feGaussianBlur stdDeviation="1"/>
<feColorMatrix type="matrix" values="0 0 0 0 0.0627451 0 0 0 0 0.0941176 0 0 0 0 0.156863 0 0 0 0.05 0"/>
<feBlend mode="normal" in2="BackgroundImageFix" result="effect1_dropShadow_83_4058"/>
<feBlend mode="normal" in="SourceGraphic" in2="effect1_dropShadow_83_4058" result="shape"/>
</filter>
</defs>
</svg>
