<svg width="52" height="51" viewBox="0 0 52 51" fill="none" xmlns="http://www.w3.org/2000/svg">
<g filter="url(#filter0_d_83_4070)">
<rect x="2.66699" y="1" width="47" height="47" rx="8" fill="white"/>
<g clip-path="url(#clip0_83_4070)">
<path d="M24.6967 15.9999C25.2992 16.234 25.4399 16.4375 25.4399 17.0753C25.4399 22.0656 25.4399 27.0559 25.4399 32.0461C25.4399 32.5776 25.1607 32.9147 24.6515 32.9908C24.369 33.033 24.135 32.9201 23.9269 32.7484C22.8203 31.8356 21.7137 30.9223 20.6075 30.0087C19.9624 29.4755 19.3169 28.9432 18.6744 28.4071C18.5604 28.312 18.4408 28.2673 18.2869 28.2686C17.5863 28.2748 16.8848 28.2553 16.1847 28.2769C15.6922 28.2917 15.3615 28.1052 15.168 27.6771V21.3227C15.3615 20.8946 15.6927 20.7077 16.1855 20.723C16.8788 20.7445 17.5734 20.7247 18.2671 20.7309C18.4271 20.7321 18.5548 20.6924 18.6761 20.5915C20.1435 19.3742 21.6083 18.154 23.0856 16.9479C23.5019 16.6084 23.8623 16.1906 24.3965 15.9995L24.6967 15.9999Z" fill="#000C2A"/>
<path d="M37.163 24.5172C37.1264 27.5465 36.0254 30.1585 33.8316 32.3419C33.6054 32.5669 33.3439 32.7014 33.0097 32.648C32.3122 32.5367 32.0128 31.815 32.4519 31.2806C32.7083 30.9683 33.0158 30.697 33.2717 30.3822C34.4402 28.9437 35.1537 27.3244 35.3321 25.504C35.6186 22.5794 34.7176 20.0398 32.6132 17.9022C32.3788 17.664 32.1956 17.4092 32.2597 17.0597C32.3208 16.7271 32.5173 16.4955 32.8515 16.3875C33.2037 16.2738 33.5146 16.359 33.7761 16.6068C34.3382 17.1399 34.8315 17.7277 35.265 18.3613C36.2147 19.7498 36.8077 21.2694 37.0546 22.9127C37.1342 23.443 37.1832 23.9774 37.163 24.5176V24.5172Z" fill="#000C2A"/>
<path d="M33.1802 24.4975C33.2297 25.7635 32.8228 27.1773 31.9721 28.4748C31.6814 28.9182 31.3356 29.3214 30.9537 29.6941C30.6084 30.0312 30.0884 30.0453 29.7332 29.7425C29.3835 29.4443 29.328 28.9281 29.6399 28.5716C29.999 28.1613 30.3723 27.7642 30.6441 27.2906C31.0793 26.5337 31.3331 25.7304 31.3894 24.8635C31.4694 23.6367 31.1658 22.5096 30.4944 21.4694C30.2751 21.1294 30.0063 20.8266 29.7254 20.5325C29.4209 20.2141 29.356 19.8625 29.5246 19.5279C29.799 18.9835 30.512 18.8719 30.9619 19.314C31.7524 20.0908 32.3519 20.9859 32.7308 22.0129C32.9953 22.7297 33.1488 23.4667 33.1794 24.4979L33.1802 24.4975Z" fill="#000C2A"/>
<path d="M29.6095 24.5043C29.6009 25.5537 29.2298 26.464 28.472 27.2238C28.1034 27.5936 27.5744 27.6288 27.2063 27.3132C26.8377 26.9972 26.8076 26.4855 27.1607 26.0951C27.5267 25.6897 27.7864 25.2505 27.8299 24.7012C27.8806 24.0564 27.6991 23.4918 27.2484 23.0128C27.0114 22.7609 26.8506 22.4867 26.9353 22.1364C27.0145 21.8084 27.2273 21.5883 27.5697 21.5027C27.9103 21.4175 28.2045 21.5068 28.4496 21.7488C29.2117 22.5024 29.6074 23.4438 29.6095 24.5047V24.5043Z" fill="#000C2A"/>
</g>
</g>
<defs>
<filter id="filter0_d_83_4070" x="0.666992" y="0" width="51.001" height="51" filterUnits="userSpaceOnUse" color-interpolation-filters="sRGB">
<feFlood flood-opacity="0" result="BackgroundImageFix"/>
<feColorMatrix in="SourceAlpha" type="matrix" values="0 0 0 0 0 0 0 0 0 0 0 0 0 0 0 0 0 0 127 0" result="hardAlpha"/>
<feOffset dy="1"/>
<feGaussianBlur stdDeviation="1"/>
<feColorMatrix type="matrix" values="0 0 0 0 0.0627451 0 0 0 0 0.0941176 0 0 0 0 0.156863 0 0 0 0.05 0"/>
<feBlend mode="normal" in2="BackgroundImageFix" result="effect1_dropShadow_83_4070"/>
<feBlend mode="normal" in="SourceGraphic" in2="effect1_dropShadow_83_4070" result="shape"/>
</filter>
<clipPath id="clip0_83_4070">
<rect width="22" height="17" fill="white" transform="translate(15.168 16)"/>
</clipPath>
</defs>
</svg>
