<svg width="52" height="51" viewBox="0 0 52 51" fill="none" xmlns="http://www.w3.org/2000/svg">
<g filter="url(#filter0_d_83_4105)">
<rect x="2.66699" y="1" width="47" height="47" rx="8" fill="white"/>
<g clip-path="url(#clip0_83_4105)">
<path d="M11.668 36.7252C11.7445 36.4524 11.7591 36.1698 11.7988 35.8916C11.948 34.8494 12.1215 33.8115 12.3149 32.7764C12.5626 31.4522 12.8596 30.1386 13.1685 28.8277C13.4321 27.7091 13.7532 26.6052 14.2415 25.5565C14.6864 24.6014 15.2228 23.7086 16.0506 23.0116C16.7967 22.3834 17.6701 21.9921 18.588 21.683C18.9034 21.5767 19.2144 21.4436 19.5567 21.4344C20.2099 21.4167 20.7598 21.7698 20.9782 22.3728C21.4158 23.5816 21.796 24.8091 22.1751 26.0366C22.3188 26.5014 22.4617 26.9661 22.6092 27.4296C22.7055 27.7326 22.8881 27.8712 23.1699 27.8674C23.4262 27.8637 23.6061 27.7054 23.6975 27.4078C24.1278 26.007 24.5612 24.6068 25.0252 23.2162C25.1132 22.9524 25.2095 22.6912 25.2954 22.4266C25.5261 21.7167 26.3184 21.2536 27.125 21.4981C28.1007 21.794 29.0523 22.1365 29.8878 22.7307C30.5341 23.1904 31.0433 23.7713 31.4603 24.4352C31.5261 24.5398 31.46 24.5578 31.3921 24.5939C30.4836 25.0794 29.685 25.7032 29.0074 26.4677C27.6433 28.0064 26.9083 29.7933 26.8221 31.8339C26.7504 33.5265 27.165 35.0983 28.0262 36.5611C28.1358 36.747 28.2586 36.9268 28.3883 37.1001C28.4561 37.191 28.4405 37.2495 28.3661 37.3173C28.2391 37.4327 28.0986 37.5138 27.9184 37.5104C27.8662 37.5093 27.8141 37.5131 27.7619 37.5131C24.6725 37.5131 21.5834 37.5131 18.4941 37.5131C18.0906 37.5131 17.8495 37.3486 17.7657 37.0187C17.7281 36.8702 17.7497 36.7276 17.8106 36.5873C17.9236 36.3275 18.0301 36.0649 18.1438 35.8051C18.3268 35.3877 18.2801 34.9784 18.1132 34.5688C17.9779 34.2372 17.8328 33.9086 17.652 33.6001C17.229 32.8775 17.1678 32.1009 17.245 31.2959C17.3226 30.4855 17.5351 29.7061 17.8008 28.9387C17.8339 28.843 17.8673 28.7473 17.8868 28.6448C17.7222 28.8283 17.596 29.0354 17.4815 29.2489C16.9212 30.2945 16.5438 31.409 16.1998 32.5353C15.8043 33.8306 15.4968 35.147 15.2297 36.4725C15.1984 36.6281 15.1734 36.7848 15.1469 36.9411C15.0881 37.287 14.8314 37.507 14.4777 37.508C13.8113 37.5097 13.1445 37.495 12.4788 37.5141C12.0697 37.5257 11.8043 37.3718 11.6683 36.9976V36.7252H11.668Z" fill="#000C2A"/>
<path d="M43.6686 32.6388C43.6353 32.8843 43.6067 33.1301 43.5681 33.375C43.2989 35.0829 42.5278 36.5433 41.2739 37.7531C40.037 38.9465 38.5521 39.6868 36.8311 39.9163C34.4005 40.2401 32.2269 39.6265 30.3723 38.0466C28.9765 36.8576 28.1003 35.3498 27.7838 33.5636C27.3911 31.3466 27.8624 29.3009 29.2384 27.4911C30.4419 25.9085 32.0471 24.9047 34.0283 24.4992C35.804 24.1359 37.5194 24.332 39.1427 25.1175C41.4527 26.2347 42.8906 28.0482 43.486 30.4988C43.5685 30.8386 43.6252 31.1869 43.6367 31.539C43.6384 31.589 43.6342 31.6418 43.6686 31.6857V32.6391V32.6388ZM30.83 33.3004C30.8318 33.5806 30.9257 33.7795 31.0972 33.947C31.7368 34.5722 32.3758 35.1983 33.0151 35.8238C33.4401 36.2399 33.9135 36.2403 34.3372 35.8262C35.8499 34.3474 37.3633 32.8686 38.8756 31.3895C39.3347 30.9407 39.7991 30.4967 40.2485 30.0384C40.6693 29.6094 40.525 28.9161 39.9726 28.6992C39.5806 28.5453 39.2544 28.6778 38.9695 28.959C38.3779 29.5433 37.782 30.1232 37.1876 30.7048C36.0568 31.8117 34.925 32.918 33.7966 34.0277C33.7086 34.1142 33.6551 34.1455 33.5587 34.0338C33.4321 33.8867 33.2836 33.758 33.1441 33.6222C32.8405 33.3259 32.5431 33.0229 32.2304 32.7358C31.9727 32.4992 31.661 32.4624 31.3417 32.5956C31.0133 32.7324 30.8523 32.9939 30.83 33.3V33.3004Z" fill="#000C2A"/>
<path d="M23.0289 9.0015C24.3704 9.0049 25.4616 9.40056 26.4539 10.0761C27.2616 10.6264 27.9447 11.2971 28.4404 12.1368C28.8306 12.7977 29.0251 13.5237 29.1663 14.267C29.3384 15.1734 29.4219 16.0951 29.6491 16.9923C29.8268 17.6948 30.039 18.387 30.2953 19.0656C30.3447 19.196 30.3096 19.2314 30.1906 19.2743C29.4494 19.5406 28.7068 19.5117 27.96 19.3036C27.5697 19.195 27.1934 19.0523 26.8351 18.8664C26.7506 18.8225 26.7075 18.8463 26.6442 18.9001C26.1329 19.3349 25.6584 19.811 25.1158 20.2107C24.632 20.5672 24.1252 20.8774 23.519 20.9939C22.9694 21.0994 22.4647 20.9591 21.9812 20.7163C21.3245 20.3871 20.7833 19.9073 20.2431 19.4269C20.0546 19.259 19.8605 19.0969 19.6797 18.9216C19.5833 18.8283 19.5075 18.8416 19.3958 18.895C18.6612 19.2471 17.8991 19.495 17.0654 19.4626C16.7211 19.4494 16.3924 19.3748 16.0692 19.2607C15.9562 19.2209 15.9597 19.1725 15.9931 19.0786C16.3235 18.1544 16.6324 17.2239 16.799 16.2551C16.9131 15.5918 17.0271 14.9286 17.1263 14.2629C17.3913 12.4892 18.3141 11.1231 19.8004 10.1047C20.5183 9.61269 21.2977 9.25279 22.1652 9.09411C22.4901 9.03487 22.8164 8.99026 23.0289 9.00116V9.0015Z" fill="#000C2A"/>
</g>
</g>
<defs>
<filter id="filter0_d_83_4105" x="0.666992" y="0" width="51.001" height="51" filterUnits="userSpaceOnUse" color-interpolation-filters="sRGB">
<feFlood flood-opacity="0" result="BackgroundImageFix"/>
<feColorMatrix in="SourceAlpha" type="matrix" values="0 0 0 0 0 0 0 0 0 0 0 0 0 0 0 0 0 0 127 0" result="hardAlpha"/>
<feOffset dy="1"/>
<feGaussianBlur stdDeviation="1"/>
<feColorMatrix type="matrix" values="0 0 0 0 0.0627451 0 0 0 0 0.0941176 0 0 0 0 0.156863 0 0 0 0.05 0"/>
<feBlend mode="normal" in2="BackgroundImageFix" result="effect1_dropShadow_83_4105"/>
<feBlend mode="normal" in="SourceGraphic" in2="effect1_dropShadow_83_4105" result="shape"/>
</filter>
<clipPath id="clip0_83_4105">
<rect width="32" height="31" fill="white" transform="translate(11.668 9)"/>
</clipPath>
</defs>
</svg>
