<svg width="138" height="26" viewBox="0 0 138 26" fill="none" xmlns="http://www.w3.org/2000/svg">
<path id="Union" fill-rule="evenodd" clip-rule="evenodd" d="M105.106 25.518C103.359 25.518 101.84 25.2231 100.547 24.6334C99.254 24.0436 98.256 23.2157 97.5527 22.1496C96.8496 21.0835 96.498 19.8246 96.498 18.3729H101.601C101.601 19.2122 101.919 19.8813 102.554 20.3804C103.212 20.8567 104.097 21.0949 105.208 21.0949C106.274 21.0949 107.102 20.8567 107.692 20.3804C108.304 19.904 108.61 19.2462 108.61 18.407C108.61 17.6811 108.384 17.0574 107.93 16.5357C107.476 16.014 106.841 15.6624 106.025 15.4809L103.507 14.9025C101.397 14.4035 99.7532 13.4848 98.5734 12.1466C97.4166 10.7856 96.8382 9.12977 96.8382 7.17906C96.8382 5.72737 97.1672 4.46848 97.825 3.4024C98.5054 2.31363 99.4582 1.47437 100.683 0.884622C101.908 0.294874 103.359 0 105.038 0C107.578 0 109.586 0.635114 111.06 1.90534C112.557 3.15289 113.306 4.84275 113.306 6.97491H108.202C108.202 6.18102 107.919 5.55725 107.352 5.1036C106.807 4.64994 106.013 4.42312 104.97 4.42312C103.994 4.42312 103.246 4.64994 102.724 5.1036C102.203 5.53457 101.942 6.15834 101.942 6.97491C101.942 7.70076 102.146 8.32453 102.554 8.84623C102.985 9.34525 103.586 9.68549 104.357 9.86695L107.011 10.4794C109.212 10.9784 110.879 11.8857 112.013 13.2013C113.147 14.4942 113.714 16.15 113.714 18.1688C113.714 19.6205 113.351 20.9021 112.625 22.0135C111.922 23.125 110.924 23.9869 109.631 24.5993C108.361 25.2118 106.853 25.518 105.106 25.518ZM78.0195 25.3505V0.513031H83.1231V10.1418H85.5388L89.6216 0.513031H95.1676L90.064 12.3874L95.3717 25.3505H89.7577L85.5388 14.8371H83.1231V25.3505H78.0195ZM63.063 0.513031L56.9727 25.3505H62.1784L63.3693 19.7366H69.2894L70.4803 25.3505H75.6859L69.5276 0.513031H63.063ZM68.4048 15.6537H64.2199L65.4787 9.63146C65.6602 8.76952 65.819 7.91892 65.9551 7.07966C66.1139 6.2404 66.2386 5.5826 66.3293 5.10627C66.4201 5.5826 66.5448 6.25174 66.7036 7.11368C66.8851 7.95294 67.0552 8.80354 67.214 9.66548L68.4048 15.6537ZM45.6778 25.3505L39.5195 0.513031H44.7932L48.2296 16.1981C48.343 16.7425 48.4791 17.4343 48.6379 18.2735C48.8194 19.1128 48.9555 19.8273 49.0462 20.4171C49.1369 19.8273 49.2503 19.1128 49.3864 18.2735C49.5225 17.4343 49.6473 16.7311 49.7607 16.1641L53.095 0.513031H58.2327L52.1424 25.3505H45.6778ZM28.1587 0.513031L22.0684 25.3505H27.274L28.4649 19.7366H34.3851L35.5759 25.3505H40.7816L34.6232 0.513031H28.1587ZM33.5004 15.6537H29.3155L30.5744 9.63146C30.7558 8.76952 30.9146 7.91892 31.0507 7.07966C31.2095 6.2404 31.3342 5.5826 31.425 5.10627C31.5157 5.5826 31.6405 6.25174 31.7992 7.11368C31.9807 7.95294 32.1508 8.80354 32.3096 9.66548L33.5004 15.6537ZM130.892 18.992C134.294 18.992 137.051 16.2343 137.051 12.8325C137.051 9.4307 134.294 6.67299 130.892 6.67299C128.022 6.67299 125.61 8.63597 124.926 11.2926H113.695L115.235 13.8591H124.818C125.306 16.7722 127.84 18.992 130.892 18.992ZM22.9022 11.2926H12.125C11.4412 8.63597 9.02959 6.67299 6.15951 6.67299C2.75771 6.67299 0 9.4307 0 12.8325C0 16.2343 2.75771 18.992 6.15951 18.992C9.21154 18.992 11.7451 16.7722 12.2339 13.8591H22.2763L22.9022 11.2926Z" fill="white"/>
</svg>
