<svg width="219" height="41" viewBox="0 0 219 41" fill="none" xmlns="http://www.w3.org/2000/svg">
<path d="M167.208 40.2399C164.435 40.2399 162.025 39.7749 159.973 38.845C157.92 37.9149 156.337 36.6094 155.221 34.9282C154.105 33.2471 153.547 31.2619 153.547 28.9726H161.645C161.645 30.2962 162.15 31.3513 163.158 32.1383C164.202 32.8894 165.606 33.265 167.369 33.265C169.061 33.265 170.375 32.8894 171.311 32.1383C172.283 31.3871 172.768 30.3498 172.768 29.0264C172.768 27.8817 172.41 26.8982 171.689 26.0755C170.969 25.2528 169.961 24.6984 168.666 24.4122L164.67 23.5001C161.322 22.7132 158.713 21.2645 156.84 19.1543C155.005 17.0081 154.087 14.3969 154.087 11.3208C154.087 9.03162 154.609 7.04645 155.653 5.36532C156.733 3.64842 158.244 2.32497 160.188 1.39498C162.132 0.464994 164.435 0 167.1 0C171.131 0 174.317 1.00153 176.656 3.00457C179.032 4.97186 180.221 7.63664 180.221 10.9989H172.121C172.121 9.74699 171.672 8.76336 170.772 8.04798C169.907 7.3326 168.647 6.97492 166.992 6.97492C165.443 6.97492 164.256 7.3326 163.427 8.04798C162.601 8.72759 162.186 9.71123 162.186 10.9989C162.186 12.1435 162.51 13.1271 163.158 13.9498C163.842 14.7367 164.795 15.2733 166.019 15.5594L170.231 16.5252C173.724 17.3121 176.369 18.7428 178.169 20.8174C179.968 22.8562 180.868 25.4673 180.868 28.6508C180.868 30.94 180.292 32.961 179.14 34.7136C178.024 36.4663 176.44 37.8255 174.389 38.7912C172.373 39.7571 169.98 40.2399 167.208 40.2399Z" fill="white"/>
<path d="M124.223 39.9754V0.808594H132.322V15.9924H136.155L142.635 0.808594H151.436L143.337 19.5336L151.76 39.9754H142.851L136.155 23.3965H132.322V39.9754H124.223Z" fill="white"/>
<path d="M90.8203 39.9754L100.485 0.808594H110.744L120.517 39.9754H112.256L110.366 31.1227H100.971L99.0815 39.9754H90.8203ZM102.321 24.6843H108.963L107.073 15.2413C106.821 13.8821 106.551 12.5408 106.263 11.2173C106.011 9.8581 105.813 8.80291 105.669 8.05178C105.525 8.80291 105.327 9.84021 105.075 11.1637C104.859 12.4871 104.607 13.8284 104.319 15.1877L102.321 24.6843Z" fill="white"/>
<path d="M72.898 39.9754L63.125 0.808594H71.4941L76.9475 25.5427C77.1275 26.4012 77.3435 27.4921 77.5955 28.8155C77.8835 30.139 78.0995 31.2657 78.2435 32.1958C78.3874 31.2657 78.5674 30.139 78.7833 28.8155C78.9993 27.4921 79.1974 26.3832 79.3773 25.4891L84.6687 0.808594H92.822L83.157 39.9754H72.898Z" fill="white"/>
<path d="M35.4297 39.9754L45.0947 0.808594H55.3536L65.1267 39.9754H56.8655L54.9758 31.1227H45.5807L43.6907 39.9754H35.4297ZM46.9305 24.6843H53.5718L51.682 15.2413C51.43 13.8821 51.1601 12.5408 50.872 11.2173C50.6202 9.8581 50.4221 8.80291 50.2782 8.05178C50.1341 8.80291 49.9362 9.84021 49.6842 11.1637C49.4682 12.4871 49.2162 13.8284 48.9283 15.1877L46.9305 24.6843Z" fill="white"/>
<path d="M208.126 29.9486C213.525 29.9486 217.901 25.5999 217.901 20.2355C217.901 14.8712 213.525 10.5225 208.126 10.5225C202.728 10.5225 198.352 14.8712 198.352 20.2355C198.352 25.5999 202.728 29.9486 208.126 29.9486Z" fill="white"/>
<path d="M10.1811 29.9486C15.5796 29.9486 19.956 25.5999 19.956 20.2355C19.956 14.8712 15.5796 10.5225 10.1811 10.5225C4.78261 10.5225 0.40625 14.8712 0.40625 20.2355C0.40625 25.5999 4.78261 29.9486 10.1811 29.9486Z" fill="white"/>
<path d="M17.5156 17.8086H36.7541L35.7609 21.8558H17.5156V17.8086Z" fill="white"/>
<path d="M200.386 17.8086H180.836L183.28 21.8558H200.386V17.8086Z" fill="white"/>
</svg>
