<svg width="71" height="90" viewBox="0 0 71 90" fill="none" xmlns="http://www.w3.org/2000/svg">
<path opacity="0.44" d="M0.670898 89.3086L3.82812 74.0586L32.6006 48.0859C35.4997 45.5046 37.9023 43.1416 39.8086 40.9971C41.7148 38.8128 43.224 36.847 44.3359 35.0996C45.4479 33.3522 46.2223 31.7835 46.6592 30.3936C47.1357 28.9639 47.374 27.693 47.374 26.5811C47.374 24.6351 46.8577 23.1855 45.8252 22.2324C44.7926 21.2396 43.4821 20.7432 41.8936 20.7432C40.1859 20.7432 38.4385 21.0807 36.6514 21.7559C34.8643 22.3913 33.0176 23.3643 31.1113 24.6748C29.2448 25.9854 27.2591 27.5938 25.1543 29.5L14.0742 14.1309C18.3236 10.1198 23.109 6.92285 28.4307 4.54004C33.7523 2.15723 39.7093 0.96582 46.3018 0.96582C51.1071 0.96582 55.3167 1.85938 58.9307 3.64648C62.5843 5.39388 65.4238 7.91569 67.4492 11.2119C69.5143 14.4684 70.5469 18.3802 70.5469 22.9473C70.5469 26.7201 69.8717 30.3737 68.5215 33.9082C67.1712 37.403 64.8281 41.1361 61.4922 45.1074C58.196 49.0391 53.5693 53.5664 47.6123 58.6895L35.4004 69.1738V69.8887H64.5898L60.5391 89.3086H0.670898Z" fill="white"/>
</svg>
