<svg width="67" height="91" viewBox="0 0 67 91" fill="none" xmlns="http://www.w3.org/2000/svg">
<path opacity="0.44" d="M23.4814 90.5C19.1527 90.5 14.9033 90.1029 10.7334 89.3086C6.56348 88.4746 3.16797 87.3031 0.546875 85.7939V66.0166C4.08138 68.1611 7.73503 69.6901 11.5078 70.6035C15.3203 71.5169 19.1527 71.9736 23.0049 71.9736C25.348 71.9736 27.5124 71.7751 29.498 71.3779C31.5234 70.9808 33.2708 70.3652 34.7402 69.5312C36.2096 68.6973 37.3415 67.6051 38.1357 66.2549C38.9697 64.8649 39.3867 63.1969 39.3867 61.251C39.3867 59.5433 38.9697 58.1136 38.1357 56.9619C37.3018 55.7705 35.6934 54.877 33.3105 54.2812C30.9277 53.6458 27.4131 53.3281 22.7666 53.3281H17.7627L20.9199 35.9932H25.5664C28.4258 35.9932 30.9873 35.7747 33.251 35.3379C35.5146 34.8613 37.4606 34.1862 39.0889 33.3125C40.7171 32.3991 41.9482 31.307 42.7822 30.0361C43.6559 28.7653 44.0928 27.2959 44.0928 25.6279C44.0928 24.238 43.4971 22.8877 42.3057 21.5771C41.154 20.2269 39.069 19.5518 36.0508 19.5518C33.39 19.5518 30.7292 20.0085 28.0684 20.9219C25.4076 21.8353 22.707 23.0465 19.9668 24.5557L10.5547 9.78223C14.804 7.08171 19.1725 4.93717 23.6602 3.34863C28.1478 1.76009 33.7474 0.96582 40.459 0.96582C45.6615 0.96582 50.2285 1.7998 54.1602 3.46777C58.1315 5.09603 61.2292 7.43913 63.4531 10.4971C65.6771 13.555 66.7891 17.2484 66.7891 21.5771C66.7891 25.8265 65.9154 29.4801 64.168 32.5381C62.4206 35.5563 60.0179 37.9987 56.96 39.8652C53.902 41.7318 50.3874 43.082 46.416 43.916V44.3926C51.8171 45.4251 55.8877 47.7087 58.6279 51.2432C61.4079 54.7777 62.7979 58.9277 62.7979 63.6934C62.7979 68.4193 61.7653 72.4701 59.7002 75.8457C57.6351 79.2214 54.7757 82.0013 51.1221 84.1855C47.5081 86.3301 43.3382 87.9186 38.6123 88.9512C33.8864 89.9837 28.8428 90.5 23.4814 90.5Z" fill="white"/>
</svg>
