<svg width="70" height="89" viewBox="0 0 70 89" fill="none" xmlns="http://www.w3.org/2000/svg">
<path opacity="0.44" d="M25.6309 88.4087C22.6921 88.4087 19.5944 88.23 16.3379 87.8726C13.1211 87.5151 10.1426 86.979 7.40234 86.2642C4.66211 85.5096 2.51758 84.5763 0.96875 83.4644V64.1636C3.90755 65.8713 7.40234 67.2612 11.4531 68.3335C15.5436 69.3661 19.2965 69.8823 22.7119 69.8823C25.333 69.8823 27.6562 69.6639 29.6816 69.2271C31.7467 68.7902 33.4743 68.1151 34.8643 67.2017C36.2939 66.2485 37.3662 65.0571 38.0811 63.6274C38.8356 62.1978 39.2129 60.4702 39.2129 58.4448C39.2129 55.7046 38.2796 53.3416 36.4131 51.356C34.5863 49.3306 31.8063 48.3179 28.0732 48.3179C26.0081 48.3179 23.8438 48.4966 21.5801 48.854C19.3561 49.2114 17.4896 49.6681 15.9805 50.2241L8.71289 44.7437L21.5205 0.125488H69.9512L65.9004 19.3667H37.8428L34.3281 30.3872C35.3607 30.2681 36.2344 30.2085 36.9492 30.2085C37.7038 30.1688 38.3193 30.1489 38.7959 30.1489C43.2835 30.1489 47.3542 31.1418 51.0078 33.1274C54.6615 35.1131 57.5605 38.0321 59.7051 41.8843C61.8893 45.6968 62.9814 50.4028 62.9814 56.0024C62.9814 61.4829 62.1077 66.2684 60.3604 70.3589C58.613 74.4097 56.0911 77.7655 52.7949 80.4263C49.5384 83.0871 45.6068 85.0926 41 86.4429C36.4329 87.7534 31.3099 88.4087 25.6309 88.4087Z" fill="white"/>
</svg>
